G04 MADE WITH FRITZING*
G04 WWW.FRITZING.ORG*
G04 DOUBLE SIDED*
G04 HOLES PLATED*
G04 CONTOUR ON CENTER OF CONTOUR VECTOR*
%FSLAX26Y26*%
%MOIN*%
%ADD10C,0.084000*%
%ADD11C,0.109583*%
%ADD12C,0.075000*%
%ADD13C,0.088000*%
%ADD14C,0.087999*%
%ADD15C,0.135984*%
%ADD16C,0.096614*%
%ADD17C,0.085000*%
%ADD18C,0.049370*%
%ADD19R,0.088740X0.135984*%
%ADD20R,0.001000X0.001000*%
G04 MASK1*
%FSLAX26Y26*%
%MOIN*%
D10*
X2342430Y1935350D03*
X2342430Y1679350D03*
X2164430Y1935350D03*
X2164430Y1679350D03*
X2342430Y1935350D03*
X2342430Y1679350D03*
X2164430Y1935350D03*
X2164430Y1679350D03*
D11*
X2973020Y501510D03*
X2973100Y701520D03*
D12*
X1721200Y435350D03*
X1800000Y435350D03*
X1878600Y435350D03*
X1957400Y435350D03*
D13*
X1600000Y435350D03*
X1500000Y435350D03*
X1400000Y435350D03*
X2000000Y1935350D03*
X1900000Y1935350D03*
X2700000Y735350D03*
X2700000Y235350D03*
X2700000Y935350D03*
X2100000Y235350D03*
X2100000Y335350D03*
X2100000Y435350D03*
X2100000Y535350D03*
X2100000Y635350D03*
X2100000Y735350D03*
X2100000Y835350D03*
X2100000Y935350D03*
X2200000Y235350D03*
X2200000Y335350D03*
X2200000Y435350D03*
X2200000Y535350D03*
X2200000Y635350D03*
X2200000Y735350D03*
X2200000Y835350D03*
X2200000Y935350D03*
X2300000Y235350D03*
X2300000Y335350D03*
X2300000Y435350D03*
X2300000Y535350D03*
X2300000Y635350D03*
X2300000Y735350D03*
X2300000Y835350D03*
X2300000Y935350D03*
X2400000Y235350D03*
X2400000Y335350D03*
X2400000Y435350D03*
X2400000Y535350D03*
X2400000Y635350D03*
X2400000Y735350D03*
X2400000Y835350D03*
X2400000Y935350D03*
X2500000Y235350D03*
X2500000Y335350D03*
X2500000Y435350D03*
X2500000Y535350D03*
X2500000Y635350D03*
X2500000Y735350D03*
X2500000Y835350D03*
X2500000Y935350D03*
X2600000Y235350D03*
X2600000Y335350D03*
X2600000Y435350D03*
X2600000Y535350D03*
X2600000Y635350D03*
X2600000Y735350D03*
X2600000Y835350D03*
X2600000Y935350D03*
X2500000Y1935350D03*
X2600000Y1935350D03*
X2700000Y1935350D03*
X2800000Y1935350D03*
X500000Y335350D03*
X500000Y435350D03*
X1100000Y335350D03*
X1000000Y335350D03*
X900000Y335350D03*
X800000Y335350D03*
X1100000Y435350D03*
X1000000Y435350D03*
X900000Y435350D03*
X800000Y435350D03*
X400000Y335350D03*
X400000Y435350D03*
X1800000Y1935350D03*
X1700000Y1935350D03*
X1600000Y1935350D03*
X1500000Y1935350D03*
X1400000Y1935350D03*
X1300000Y1935350D03*
X1200000Y1935350D03*
X1100000Y1935350D03*
X1000000Y1935350D03*
X900000Y1935350D03*
X800000Y1935350D03*
X700000Y1935350D03*
X600000Y1935350D03*
X500000Y1935350D03*
X400000Y1935350D03*
X1800000Y235350D03*
X1700000Y235350D03*
X1600000Y235350D03*
X1500000Y235350D03*
X1400000Y235350D03*
X1300000Y235350D03*
X1200000Y235350D03*
X1100000Y235350D03*
X1000000Y235350D03*
X900000Y235350D03*
X800000Y235350D03*
X700000Y235350D03*
X600000Y235350D03*
X500000Y235350D03*
X400000Y235350D03*
D14*
X2886890Y1235774D03*
X2886890Y1335774D03*
X2886890Y1435274D03*
X2886890Y1535274D03*
D15*
X3000000Y135350D03*
X100000Y135350D03*
D16*
X2979340Y1735138D03*
D15*
X100214Y710140D03*
X100214Y1630136D03*
X1940210Y710140D03*
X1940210Y1630136D03*
X3000000Y2035350D03*
X100000Y2035350D03*
D13*
X2300420Y1335975D03*
X2600000Y1335350D03*
D17*
X1100000Y1335350D03*
X1500000Y1335350D03*
X1100000Y935350D03*
X1500000Y935350D03*
X700000Y1135350D03*
X1100000Y1135350D03*
X300000Y1335350D03*
X700000Y1335350D03*
X300000Y935350D03*
X700000Y935350D03*
D18*
X1032000Y525350D03*
X1368000Y557350D03*
X1896000Y589350D03*
X248000Y109350D03*
X568000Y973350D03*
X936000Y1021350D03*
X2248000Y1421350D03*
X1224000Y797350D03*
X552000Y797350D03*
X1016000Y1005350D03*
X1960000Y1101350D03*
X1624000Y797350D03*
D19*
X400000Y177918D03*
X1800000Y177918D03*
X1700000Y177918D03*
X1600000Y177918D03*
X1500000Y177918D03*
X1400000Y177918D03*
X1300000Y177918D03*
X1200000Y177918D03*
X700000Y1992787D03*
X1000000Y177918D03*
X900000Y177918D03*
X800000Y177918D03*
X700000Y177918D03*
X600000Y177918D03*
X500000Y177918D03*
X1100000Y177918D03*
X2000000Y1992787D03*
X2600000Y177918D03*
X2500000Y177918D03*
X2400000Y177918D03*
X2300000Y177918D03*
X2200000Y177918D03*
X2100000Y177918D03*
X2500000Y1992787D03*
X2600000Y1992787D03*
X2700000Y1992787D03*
X2800000Y1992787D03*
X1900000Y1992787D03*
X1800000Y1992787D03*
X1700000Y1992787D03*
X1600000Y1992787D03*
X1500000Y1992787D03*
X1400000Y1992787D03*
X1300000Y1992787D03*
X1200000Y1992787D03*
X1100000Y1992787D03*
X1000000Y1992787D03*
X900000Y1992787D03*
X800000Y1992787D03*
X600000Y1992787D03*
X500000Y1992787D03*
X400000Y1992787D03*
D20*
X392500Y1707850D02*
X406500Y1707850D01*
X492500Y1707850D02*
X506500Y1707850D01*
X592500Y1707850D02*
X606500Y1707850D01*
X692500Y1707850D02*
X706500Y1707850D01*
X792500Y1707850D02*
X807500Y1707850D01*
X892500Y1707850D02*
X907500Y1707850D01*
X992500Y1707850D02*
X1007500Y1707850D01*
X1092500Y1707850D02*
X1107500Y1707850D01*
X1193500Y1707850D02*
X1207500Y1707850D01*
X1293500Y1707850D02*
X1307500Y1707850D01*
X1393500Y1707850D02*
X1407500Y1707850D01*
X1493500Y1707850D02*
X1507500Y1707850D01*
X1593500Y1707850D02*
X1608500Y1707850D01*
X1693500Y1707850D02*
X1708500Y1707850D01*
X1793500Y1707850D02*
X1808500Y1707850D01*
X387500Y1706850D02*
X410500Y1706850D01*
X487500Y1706850D02*
X510500Y1706850D01*
X588500Y1706850D02*
X611500Y1706850D01*
X688500Y1706850D02*
X711500Y1706850D01*
X788500Y1706850D02*
X811500Y1706850D01*
X888500Y1706850D02*
X911500Y1706850D01*
X988500Y1706850D02*
X1011500Y1706850D01*
X1088500Y1706850D02*
X1111500Y1706850D01*
X1188500Y1706850D02*
X1211500Y1706850D01*
X1288500Y1706850D02*
X1311500Y1706850D01*
X1389500Y1706850D02*
X1412500Y1706850D01*
X1489500Y1706850D02*
X1512500Y1706850D01*
X1589500Y1706850D02*
X1612500Y1706850D01*
X1689500Y1706850D02*
X1712500Y1706850D01*
X1789500Y1706850D02*
X1812500Y1706850D01*
X384500Y1705850D02*
X413500Y1705850D01*
X484500Y1705850D02*
X513500Y1705850D01*
X585500Y1705850D02*
X614500Y1705850D01*
X685500Y1705850D02*
X714500Y1705850D01*
X785500Y1705850D02*
X814500Y1705850D01*
X885500Y1705850D02*
X914500Y1705850D01*
X985500Y1705850D02*
X1014500Y1705850D01*
X1085500Y1705850D02*
X1114500Y1705850D01*
X1185500Y1705850D02*
X1214500Y1705850D01*
X1285500Y1705850D02*
X1314500Y1705850D01*
X1386500Y1705850D02*
X1415500Y1705850D01*
X1486500Y1705850D02*
X1515500Y1705850D01*
X1586500Y1705850D02*
X1615500Y1705850D01*
X1686500Y1705850D02*
X1715500Y1705850D01*
X1786500Y1705850D02*
X1815500Y1705850D01*
X382500Y1704850D02*
X416500Y1704850D01*
X482500Y1704850D02*
X516500Y1704850D01*
X582500Y1704850D02*
X616500Y1704850D01*
X682500Y1704850D02*
X716500Y1704850D01*
X782500Y1704850D02*
X816500Y1704850D01*
X883500Y1704850D02*
X916500Y1704850D01*
X983500Y1704850D02*
X1016500Y1704850D01*
X1083500Y1704850D02*
X1117500Y1704850D01*
X1183500Y1704850D02*
X1217500Y1704850D01*
X1283500Y1704850D02*
X1317500Y1704850D01*
X1383500Y1704850D02*
X1417500Y1704850D01*
X1483500Y1704850D02*
X1517500Y1704850D01*
X1583500Y1704850D02*
X1617500Y1704850D01*
X1683500Y1704850D02*
X1717500Y1704850D01*
X1784500Y1704850D02*
X1817500Y1704850D01*
X380500Y1703850D02*
X418500Y1703850D01*
X480500Y1703850D02*
X518500Y1703850D01*
X580500Y1703850D02*
X618500Y1703850D01*
X680500Y1703850D02*
X718500Y1703850D01*
X780500Y1703850D02*
X818500Y1703850D01*
X881500Y1703850D02*
X918500Y1703850D01*
X981500Y1703850D02*
X1018500Y1703850D01*
X1081500Y1703850D02*
X1119500Y1703850D01*
X1181500Y1703850D02*
X1219500Y1703850D01*
X1281500Y1703850D02*
X1319500Y1703850D01*
X1381500Y1703850D02*
X1419500Y1703850D01*
X1481500Y1703850D02*
X1519500Y1703850D01*
X1581500Y1703850D02*
X1619500Y1703850D01*
X1681500Y1703850D02*
X1719500Y1703850D01*
X1782500Y1703850D02*
X1820500Y1703850D01*
X378500Y1702850D02*
X419500Y1702850D01*
X478500Y1702850D02*
X520500Y1702850D01*
X578500Y1702850D02*
X620500Y1702850D01*
X679500Y1702850D02*
X720500Y1702850D01*
X779500Y1702850D02*
X820500Y1702850D01*
X879500Y1702850D02*
X920500Y1702850D01*
X979500Y1702850D02*
X1020500Y1702850D01*
X1079500Y1702850D02*
X1120500Y1702850D01*
X1179500Y1702850D02*
X1220500Y1702850D01*
X1279500Y1702850D02*
X1321500Y1702850D01*
X1379500Y1702850D02*
X1421500Y1702850D01*
X1480500Y1702850D02*
X1521500Y1702850D01*
X1580500Y1702850D02*
X1621500Y1702850D01*
X1680500Y1702850D02*
X1721500Y1702850D01*
X1780500Y1702850D02*
X1821500Y1702850D01*
X377500Y1701850D02*
X421500Y1701850D01*
X477500Y1701850D02*
X521500Y1701850D01*
X577500Y1701850D02*
X621500Y1701850D01*
X677500Y1701850D02*
X721500Y1701850D01*
X777500Y1701850D02*
X822500Y1701850D01*
X877500Y1701850D02*
X922500Y1701850D01*
X977500Y1701850D02*
X1022500Y1701850D01*
X1077500Y1701850D02*
X1122500Y1701850D01*
X1178500Y1701850D02*
X1222500Y1701850D01*
X1278500Y1701850D02*
X1322500Y1701850D01*
X1378500Y1701850D02*
X1422500Y1701850D01*
X1478500Y1701850D02*
X1522500Y1701850D01*
X1578500Y1701850D02*
X1623500Y1701850D01*
X1678500Y1701850D02*
X1723500Y1701850D01*
X1778500Y1701850D02*
X1823500Y1701850D01*
X375500Y1700850D02*
X423500Y1700850D01*
X475500Y1700850D02*
X523500Y1700850D01*
X575500Y1700850D02*
X623500Y1700850D01*
X675500Y1700850D02*
X723500Y1700850D01*
X776500Y1700850D02*
X823500Y1700850D01*
X876500Y1700850D02*
X923500Y1700850D01*
X976500Y1700850D02*
X1023500Y1700850D01*
X1076500Y1700850D02*
X1123500Y1700850D01*
X1176500Y1700850D02*
X1224500Y1700850D01*
X1276500Y1700850D02*
X1324500Y1700850D01*
X1376500Y1700850D02*
X1424500Y1700850D01*
X1476500Y1700850D02*
X1524500Y1700850D01*
X1577500Y1700850D02*
X1624500Y1700850D01*
X1677500Y1700850D02*
X1724500Y1700850D01*
X1777500Y1700850D02*
X1824500Y1700850D01*
X374500Y1699850D02*
X424500Y1699850D01*
X474500Y1699850D02*
X524500Y1699850D01*
X574500Y1699850D02*
X624500Y1699850D01*
X674500Y1699850D02*
X724500Y1699850D01*
X774500Y1699850D02*
X824500Y1699850D01*
X874500Y1699850D02*
X925500Y1699850D01*
X974500Y1699850D02*
X1025500Y1699850D01*
X1075500Y1699850D02*
X1125500Y1699850D01*
X1175500Y1699850D02*
X1225500Y1699850D01*
X1275500Y1699850D02*
X1325500Y1699850D01*
X1375500Y1699850D02*
X1425500Y1699850D01*
X1475500Y1699850D02*
X1525500Y1699850D01*
X1575500Y1699850D02*
X1625500Y1699850D01*
X1675500Y1699850D02*
X1725500Y1699850D01*
X1775500Y1699850D02*
X1826500Y1699850D01*
X372500Y1698850D02*
X425500Y1698850D01*
X473500Y1698850D02*
X525500Y1698850D01*
X573500Y1698850D02*
X626500Y1698850D01*
X673500Y1698850D02*
X726500Y1698850D01*
X773500Y1698850D02*
X826500Y1698850D01*
X873500Y1698850D02*
X926500Y1698850D01*
X973500Y1698850D02*
X1026500Y1698850D01*
X1073500Y1698850D02*
X1126500Y1698850D01*
X1173500Y1698850D02*
X1226500Y1698850D01*
X1273500Y1698850D02*
X1326500Y1698850D01*
X1374500Y1698850D02*
X1427500Y1698850D01*
X1474500Y1698850D02*
X1527500Y1698850D01*
X1574500Y1698850D02*
X1627500Y1698850D01*
X1674500Y1698850D02*
X1727500Y1698850D01*
X1774500Y1698850D02*
X1827500Y1698850D01*
X371500Y1697850D02*
X426500Y1697850D01*
X471500Y1697850D02*
X527500Y1697850D01*
X572500Y1697850D02*
X627500Y1697850D01*
X672500Y1697850D02*
X727500Y1697850D01*
X772500Y1697850D02*
X827500Y1697850D01*
X872500Y1697850D02*
X927500Y1697850D01*
X972500Y1697850D02*
X1027500Y1697850D01*
X1072500Y1697850D02*
X1127500Y1697850D01*
X1172500Y1697850D02*
X1227500Y1697850D01*
X1272500Y1697850D02*
X1327500Y1697850D01*
X1373500Y1697850D02*
X1428500Y1697850D01*
X1473500Y1697850D02*
X1528500Y1697850D01*
X1573500Y1697850D02*
X1628500Y1697850D01*
X1673500Y1697850D02*
X1728500Y1697850D01*
X1773500Y1697850D02*
X1828500Y1697850D01*
X370500Y1696850D02*
X428500Y1696850D01*
X470500Y1696850D02*
X528500Y1696850D01*
X570500Y1696850D02*
X628500Y1696850D01*
X671500Y1696850D02*
X728500Y1696850D01*
X771500Y1696850D02*
X828500Y1696850D01*
X871500Y1696850D02*
X928500Y1696850D01*
X971500Y1696850D02*
X1028500Y1696850D01*
X1071500Y1696850D02*
X1128500Y1696850D01*
X1171500Y1696850D02*
X1229500Y1696850D01*
X1271500Y1696850D02*
X1329500Y1696850D01*
X1371500Y1696850D02*
X1429500Y1696850D01*
X1472500Y1696850D02*
X1529500Y1696850D01*
X1572500Y1696850D02*
X1629500Y1696850D01*
X1672500Y1696850D02*
X1729500Y1696850D01*
X1772500Y1696850D02*
X1829500Y1696850D01*
X369500Y1695850D02*
X429500Y1695850D01*
X469500Y1695850D02*
X529500Y1695850D01*
X569500Y1695850D02*
X629500Y1695850D01*
X670500Y1695850D02*
X729500Y1695850D01*
X770500Y1695850D02*
X829500Y1695850D01*
X870500Y1695850D02*
X929500Y1695850D01*
X970500Y1695850D02*
X1029500Y1695850D01*
X1070500Y1695850D02*
X1129500Y1695850D01*
X1170500Y1695850D02*
X1230500Y1695850D01*
X1270500Y1695850D02*
X1330500Y1695850D01*
X1370500Y1695850D02*
X1430500Y1695850D01*
X1471500Y1695850D02*
X1530500Y1695850D01*
X1571500Y1695850D02*
X1630500Y1695850D01*
X1671500Y1695850D02*
X1730500Y1695850D01*
X1771500Y1695850D02*
X1830500Y1695850D01*
X368500Y1694850D02*
X429500Y1694850D01*
X468500Y1694850D02*
X530500Y1694850D01*
X569500Y1694850D02*
X630500Y1694850D01*
X669500Y1694850D02*
X730500Y1694850D01*
X769500Y1694850D02*
X830500Y1694850D01*
X869500Y1694850D02*
X930500Y1694850D01*
X969500Y1694850D02*
X1030500Y1694850D01*
X1069500Y1694850D02*
X1130500Y1694850D01*
X1169500Y1694850D02*
X1230500Y1694850D01*
X1269500Y1694850D02*
X1330500Y1694850D01*
X1370500Y1694850D02*
X1431500Y1694850D01*
X1470500Y1694850D02*
X1531500Y1694850D01*
X1570500Y1694850D02*
X1631500Y1694850D01*
X1670500Y1694850D02*
X1731500Y1694850D01*
X1770500Y1694850D02*
X1831500Y1694850D01*
X367500Y1693850D02*
X430500Y1693850D01*
X467500Y1693850D02*
X530500Y1693850D01*
X568500Y1693850D02*
X631500Y1693850D01*
X668500Y1693850D02*
X731500Y1693850D01*
X768500Y1693850D02*
X831500Y1693850D01*
X868500Y1693850D02*
X931500Y1693850D01*
X968500Y1693850D02*
X1031500Y1693850D01*
X1068500Y1693850D02*
X1131500Y1693850D01*
X1168500Y1693850D02*
X1231500Y1693850D01*
X1268500Y1693850D02*
X1331500Y1693850D01*
X1369500Y1693850D02*
X1432500Y1693850D01*
X1469500Y1693850D02*
X1532500Y1693850D01*
X1569500Y1693850D02*
X1632500Y1693850D01*
X1669500Y1693850D02*
X1732500Y1693850D01*
X1769500Y1693850D02*
X1832500Y1693850D01*
X367500Y1692850D02*
X431500Y1692850D01*
X467500Y1692850D02*
X531500Y1692850D01*
X567500Y1692850D02*
X631500Y1692850D01*
X667500Y1692850D02*
X731500Y1692850D01*
X767500Y1692850D02*
X832500Y1692850D01*
X867500Y1692850D02*
X932500Y1692850D01*
X967500Y1692850D02*
X1032500Y1692850D01*
X1067500Y1692850D02*
X1132500Y1692850D01*
X1168500Y1692850D02*
X1232500Y1692850D01*
X1268500Y1692850D02*
X1332500Y1692850D01*
X1368500Y1692850D02*
X1432500Y1692850D01*
X1468500Y1692850D02*
X1532500Y1692850D01*
X1568500Y1692850D02*
X1633500Y1692850D01*
X1668500Y1692850D02*
X1733500Y1692850D01*
X1768500Y1692850D02*
X1833500Y1692850D01*
X366500Y1691850D02*
X432500Y1691850D01*
X466500Y1691850D02*
X532500Y1691850D01*
X566500Y1691850D02*
X632500Y1691850D01*
X666500Y1691850D02*
X732500Y1691850D01*
X766500Y1691850D02*
X832500Y1691850D01*
X866500Y1691850D02*
X932500Y1691850D01*
X967500Y1691850D02*
X1033500Y1691850D01*
X1067500Y1691850D02*
X1133500Y1691850D01*
X1167500Y1691850D02*
X1233500Y1691850D01*
X1267500Y1691850D02*
X1333500Y1691850D01*
X1367500Y1691850D02*
X1433500Y1691850D01*
X1467500Y1691850D02*
X1533500Y1691850D01*
X1567500Y1691850D02*
X1633500Y1691850D01*
X1667500Y1691850D02*
X1733500Y1691850D01*
X1768500Y1691850D02*
X1834500Y1691850D01*
X365500Y1690850D02*
X433500Y1690850D01*
X465500Y1690850D02*
X533500Y1690850D01*
X565500Y1690850D02*
X633500Y1690850D01*
X665500Y1690850D02*
X733500Y1690850D01*
X766500Y1690850D02*
X833500Y1690850D01*
X866500Y1690850D02*
X933500Y1690850D01*
X966500Y1690850D02*
X1033500Y1690850D01*
X1066500Y1690850D02*
X1133500Y1690850D01*
X1166500Y1690850D02*
X1234500Y1690850D01*
X1266500Y1690850D02*
X1334500Y1690850D01*
X1366500Y1690850D02*
X1434500Y1690850D01*
X1466500Y1690850D02*
X1534500Y1690850D01*
X1567500Y1690850D02*
X1634500Y1690850D01*
X1667500Y1690850D02*
X1734500Y1690850D01*
X1767500Y1690850D02*
X1834500Y1690850D01*
X364500Y1689850D02*
X433500Y1689850D01*
X465500Y1689850D02*
X533500Y1689850D01*
X565500Y1689850D02*
X634500Y1689850D01*
X665500Y1689850D02*
X734500Y1689850D01*
X765500Y1689850D02*
X834500Y1689850D01*
X865500Y1689850D02*
X934500Y1689850D01*
X965500Y1689850D02*
X1034500Y1689850D01*
X1065500Y1689850D02*
X1134500Y1689850D01*
X1165500Y1689850D02*
X1234500Y1689850D01*
X1265500Y1689850D02*
X1334500Y1689850D01*
X1366500Y1689850D02*
X1435500Y1689850D01*
X1466500Y1689850D02*
X1535500Y1689850D01*
X1566500Y1689850D02*
X1635500Y1689850D01*
X1666500Y1689850D02*
X1735500Y1689850D01*
X1766500Y1689850D02*
X1835500Y1689850D01*
X364500Y1688850D02*
X434500Y1688850D01*
X464500Y1688850D02*
X534500Y1688850D01*
X564500Y1688850D02*
X634500Y1688850D01*
X664500Y1688850D02*
X734500Y1688850D01*
X764500Y1688850D02*
X834500Y1688850D01*
X864500Y1688850D02*
X935500Y1688850D01*
X965500Y1688850D02*
X1035500Y1688850D01*
X1065500Y1688850D02*
X1135500Y1688850D01*
X1165500Y1688850D02*
X1235500Y1688850D01*
X1265500Y1688850D02*
X1335500Y1688850D01*
X1365500Y1688850D02*
X1435500Y1688850D01*
X1465500Y1688850D02*
X1535500Y1688850D01*
X1565500Y1688850D02*
X1635500Y1688850D01*
X1665500Y1688850D02*
X1735500Y1688850D01*
X1766500Y1688850D02*
X1836500Y1688850D01*
X363500Y1687850D02*
X435500Y1687850D01*
X463500Y1687850D02*
X535500Y1687850D01*
X563500Y1687850D02*
X635500Y1687850D01*
X664500Y1687850D02*
X735500Y1687850D01*
X764500Y1687850D02*
X835500Y1687850D01*
X864500Y1687850D02*
X935500Y1687850D01*
X964500Y1687850D02*
X1035500Y1687850D01*
X1064500Y1687850D02*
X1135500Y1687850D01*
X1164500Y1687850D02*
X1236500Y1687850D01*
X1264500Y1687850D02*
X1336500Y1687850D01*
X1364500Y1687850D02*
X1436500Y1687850D01*
X1465500Y1687850D02*
X1536500Y1687850D01*
X1565500Y1687850D02*
X1636500Y1687850D01*
X1665500Y1687850D02*
X1736500Y1687850D01*
X1765500Y1687850D02*
X1836500Y1687850D01*
X363500Y1686850D02*
X435500Y1686850D01*
X463500Y1686850D02*
X535500Y1686850D01*
X563500Y1686850D02*
X635500Y1686850D01*
X663500Y1686850D02*
X735500Y1686850D01*
X763500Y1686850D02*
X836500Y1686850D01*
X863500Y1686850D02*
X936500Y1686850D01*
X963500Y1686850D02*
X1036500Y1686850D01*
X1063500Y1686850D02*
X1136500Y1686850D01*
X1164500Y1686850D02*
X1236500Y1686850D01*
X1264500Y1686850D02*
X1336500Y1686850D01*
X1364500Y1686850D02*
X1436500Y1686850D01*
X1464500Y1686850D02*
X1537500Y1686850D01*
X1564500Y1686850D02*
X1637500Y1686850D01*
X1664500Y1686850D02*
X1737500Y1686850D01*
X1764500Y1686850D02*
X1837500Y1686850D01*
X362500Y1685850D02*
X436500Y1685850D01*
X462500Y1685850D02*
X536500Y1685850D01*
X562500Y1685850D02*
X636500Y1685850D01*
X662500Y1685850D02*
X736500Y1685850D01*
X762500Y1685850D02*
X836500Y1685850D01*
X863500Y1685850D02*
X936500Y1685850D01*
X963500Y1685850D02*
X1036500Y1685850D01*
X1063500Y1685850D02*
X1137500Y1685850D01*
X1163500Y1685850D02*
X1237500Y1685850D01*
X1263500Y1685850D02*
X1337500Y1685850D01*
X1363500Y1685850D02*
X1437500Y1685850D01*
X1463500Y1685850D02*
X1537500Y1685850D01*
X1563500Y1685850D02*
X1637500Y1685850D01*
X1664500Y1685850D02*
X1737500Y1685850D01*
X1764500Y1685850D02*
X1837500Y1685850D01*
X362500Y1684850D02*
X436500Y1684850D01*
X462500Y1684850D02*
X536500Y1684850D01*
X562500Y1684850D02*
X636500Y1684850D01*
X662500Y1684850D02*
X737500Y1684850D01*
X762500Y1684850D02*
X837500Y1684850D01*
X862500Y1684850D02*
X937500Y1684850D01*
X962500Y1684850D02*
X1037500Y1684850D01*
X1062500Y1684850D02*
X1137500Y1684850D01*
X1163500Y1684850D02*
X1237500Y1684850D01*
X1263500Y1684850D02*
X1337500Y1684850D01*
X1363500Y1684850D02*
X1437500Y1684850D01*
X1463500Y1684850D02*
X1538500Y1684850D01*
X1563500Y1684850D02*
X1638500Y1684850D01*
X1663500Y1684850D02*
X1738500Y1684850D01*
X1763500Y1684850D02*
X1838500Y1684850D01*
X361500Y1683850D02*
X437500Y1683850D01*
X461500Y1683850D02*
X537500Y1683850D01*
X561500Y1683850D02*
X637500Y1683850D01*
X661500Y1683850D02*
X737500Y1683850D01*
X762500Y1683850D02*
X837500Y1683850D01*
X862500Y1683850D02*
X937500Y1683850D01*
X962500Y1683850D02*
X1037500Y1683850D01*
X1062500Y1683850D02*
X1138500Y1683850D01*
X1162500Y1683850D02*
X1238500Y1683850D01*
X1262500Y1683850D02*
X1338500Y1683850D01*
X1362500Y1683850D02*
X1438500Y1683850D01*
X1462500Y1683850D02*
X1538500Y1683850D01*
X1562500Y1683850D02*
X1638500Y1683850D01*
X1663500Y1683850D02*
X1738500Y1683850D01*
X1763500Y1683850D02*
X1838500Y1683850D01*
X361500Y1682850D02*
X437500Y1682850D01*
X461500Y1682850D02*
X537500Y1682850D01*
X561500Y1682850D02*
X637500Y1682850D01*
X661500Y1682850D02*
X737500Y1682850D01*
X761500Y1682850D02*
X838500Y1682850D01*
X861500Y1682850D02*
X938500Y1682850D01*
X961500Y1682850D02*
X1038500Y1682850D01*
X1061500Y1682850D02*
X1138500Y1682850D01*
X1162500Y1682850D02*
X1238500Y1682850D01*
X1262500Y1682850D02*
X1338500Y1682850D01*
X1362500Y1682850D02*
X1438500Y1682850D01*
X1462500Y1682850D02*
X1538500Y1682850D01*
X1562500Y1682850D02*
X1639500Y1682850D01*
X1662500Y1682850D02*
X1739500Y1682850D01*
X1762500Y1682850D02*
X1839500Y1682850D01*
X360500Y1681850D02*
X437500Y1681850D01*
X460500Y1681850D02*
X538500Y1681850D01*
X560500Y1681850D02*
X638500Y1681850D01*
X661500Y1681850D02*
X738500Y1681850D01*
X761500Y1681850D02*
X838500Y1681850D01*
X861500Y1681850D02*
X938500Y1681850D01*
X961500Y1681850D02*
X1038500Y1681850D01*
X1061500Y1681850D02*
X1138500Y1681850D01*
X1161500Y1681850D02*
X1238500Y1681850D01*
X1261500Y1681850D02*
X1339500Y1681850D01*
X1361500Y1681850D02*
X1439500Y1681850D01*
X1462500Y1681850D02*
X1539500Y1681850D01*
X1562500Y1681850D02*
X1639500Y1681850D01*
X1662500Y1681850D02*
X1739500Y1681850D01*
X1762500Y1681850D02*
X1839500Y1681850D01*
X360500Y1680850D02*
X438500Y1680850D01*
X460500Y1680850D02*
X538500Y1680850D01*
X560500Y1680850D02*
X638500Y1680850D01*
X660500Y1680850D02*
X738500Y1680850D01*
X760500Y1680850D02*
X838500Y1680850D01*
X860500Y1680850D02*
X938500Y1680850D01*
X961500Y1680850D02*
X1039500Y1680850D01*
X1061500Y1680850D02*
X1139500Y1680850D01*
X1161500Y1680850D02*
X1239500Y1680850D01*
X1261500Y1680850D02*
X1339500Y1680850D01*
X1361500Y1680850D02*
X1439500Y1680850D01*
X1461500Y1680850D02*
X1539500Y1680850D01*
X1561500Y1680850D02*
X1639500Y1680850D01*
X1661500Y1680850D02*
X1739500Y1680850D01*
X1762500Y1680850D02*
X1840500Y1680850D01*
X359500Y1679850D02*
X438500Y1679850D01*
X460500Y1679850D02*
X538500Y1679850D01*
X560500Y1679850D02*
X638500Y1679850D01*
X660500Y1679850D02*
X739500Y1679850D01*
X760500Y1679850D02*
X839500Y1679850D01*
X860500Y1679850D02*
X939500Y1679850D01*
X960500Y1679850D02*
X1039500Y1679850D01*
X1060500Y1679850D02*
X1139500Y1679850D01*
X1160500Y1679850D02*
X1239500Y1679850D01*
X1261500Y1679850D02*
X1339500Y1679850D01*
X1361500Y1679850D02*
X1439500Y1679850D01*
X1461500Y1679850D02*
X1540500Y1679850D01*
X1561500Y1679850D02*
X1640500Y1679850D01*
X1661500Y1679850D02*
X1740500Y1679850D01*
X1761500Y1679850D02*
X1840500Y1679850D01*
X359500Y1678850D02*
X439500Y1678850D01*
X459500Y1678850D02*
X539500Y1678850D01*
X559500Y1678850D02*
X639500Y1678850D01*
X660500Y1678850D02*
X739500Y1678850D01*
X760500Y1678850D02*
X839500Y1678850D01*
X860500Y1678850D02*
X939500Y1678850D01*
X960500Y1678850D02*
X1039500Y1678850D01*
X1060500Y1678850D02*
X1139500Y1678850D01*
X1160500Y1678850D02*
X1239500Y1678850D01*
X1260500Y1678850D02*
X1340500Y1678850D01*
X1360500Y1678850D02*
X1440500Y1678850D01*
X1461500Y1678850D02*
X1540500Y1678850D01*
X1561500Y1678850D02*
X1640500Y1678850D01*
X1661500Y1678850D02*
X1740500Y1678850D01*
X1761500Y1678850D02*
X1840500Y1678850D01*
X359500Y1677850D02*
X439500Y1677850D01*
X459500Y1677850D02*
X539500Y1677850D01*
X559500Y1677850D02*
X639500Y1677850D01*
X659500Y1677850D02*
X739500Y1677850D01*
X759500Y1677850D02*
X839500Y1677850D01*
X860500Y1677850D02*
X939500Y1677850D01*
X960500Y1677850D02*
X1039500Y1677850D01*
X1060500Y1677850D02*
X1140500Y1677850D01*
X1160500Y1677850D02*
X1240500Y1677850D01*
X1260500Y1677850D02*
X1340500Y1677850D01*
X1360500Y1677850D02*
X1440500Y1677850D01*
X1460500Y1677850D02*
X1540500Y1677850D01*
X1560500Y1677850D02*
X1640500Y1677850D01*
X1660500Y1677850D02*
X1740500Y1677850D01*
X1761500Y1677850D02*
X1841500Y1677850D01*
X359500Y1676850D02*
X439500Y1676850D01*
X459500Y1676850D02*
X539500Y1676850D01*
X559500Y1676850D02*
X639500Y1676850D01*
X659500Y1676850D02*
X739500Y1676850D01*
X759500Y1676850D02*
X839500Y1676850D01*
X859500Y1676850D02*
X940500Y1676850D01*
X959500Y1676850D02*
X1040500Y1676850D01*
X1060500Y1676850D02*
X1140500Y1676850D01*
X1160500Y1676850D02*
X1240500Y1676850D01*
X1260500Y1676850D02*
X1340500Y1676850D01*
X1360500Y1676850D02*
X1440500Y1676850D01*
X1460500Y1676850D02*
X1540500Y1676850D01*
X1560500Y1676850D02*
X1640500Y1676850D01*
X1660500Y1676850D02*
X1741500Y1676850D01*
X1760500Y1676850D02*
X1841500Y1676850D01*
X358500Y1675850D02*
X439500Y1675850D01*
X459500Y1675850D02*
X539500Y1675850D01*
X559500Y1675850D02*
X639500Y1675850D01*
X659500Y1675850D02*
X740500Y1675850D01*
X759500Y1675850D02*
X840500Y1675850D01*
X859500Y1675850D02*
X940500Y1675850D01*
X959500Y1675850D02*
X1040500Y1675850D01*
X1059500Y1675850D02*
X1140500Y1675850D01*
X1159500Y1675850D02*
X1240500Y1675850D01*
X1260500Y1675850D02*
X1340500Y1675850D01*
X1360500Y1675850D02*
X1441500Y1675850D01*
X1460500Y1675850D02*
X1541500Y1675850D01*
X1560500Y1675850D02*
X1641500Y1675850D01*
X1660500Y1675850D02*
X1741500Y1675850D01*
X1760500Y1675850D02*
X1841500Y1675850D01*
X358500Y1674850D02*
X439500Y1674850D01*
X458500Y1674850D02*
X540500Y1674850D01*
X558500Y1674850D02*
X640500Y1674850D01*
X659500Y1674850D02*
X740500Y1674850D01*
X759500Y1674850D02*
X840500Y1674850D01*
X859500Y1674850D02*
X940500Y1674850D01*
X959500Y1674850D02*
X1040500Y1674850D01*
X1059500Y1674850D02*
X1140500Y1674850D01*
X1159500Y1674850D02*
X1240500Y1674850D01*
X1259500Y1674850D02*
X1341500Y1674850D01*
X1359500Y1674850D02*
X1441500Y1674850D01*
X1460500Y1674850D02*
X1541500Y1674850D01*
X1560500Y1674850D02*
X1641500Y1674850D01*
X1660500Y1674850D02*
X1741500Y1674850D01*
X1760500Y1674850D02*
X1841500Y1674850D01*
X358500Y1673850D02*
X440500Y1673850D01*
X458500Y1673850D02*
X540500Y1673850D01*
X558500Y1673850D02*
X640500Y1673850D01*
X658500Y1673850D02*
X740500Y1673850D01*
X759500Y1673850D02*
X840500Y1673850D01*
X859500Y1673850D02*
X940500Y1673850D01*
X959500Y1673850D02*
X1040500Y1673850D01*
X1059500Y1673850D02*
X1141500Y1673850D01*
X1159500Y1673850D02*
X1241500Y1673850D01*
X1259500Y1673850D02*
X1341500Y1673850D01*
X1359500Y1673850D02*
X1441500Y1673850D01*
X1459500Y1673850D02*
X1541500Y1673850D01*
X1559500Y1673850D02*
X1641500Y1673850D01*
X1660500Y1673850D02*
X1741500Y1673850D01*
X1760500Y1673850D02*
X1841500Y1673850D01*
X358500Y1672850D02*
X440500Y1672850D01*
X458500Y1672850D02*
X540500Y1672850D01*
X558500Y1672850D02*
X640500Y1672850D01*
X658500Y1672850D02*
X740500Y1672850D01*
X758500Y1672850D02*
X840500Y1672850D01*
X858500Y1672850D02*
X940500Y1672850D01*
X959500Y1672850D02*
X1041500Y1672850D01*
X1059500Y1672850D02*
X1141500Y1672850D01*
X1159500Y1672850D02*
X1241500Y1672850D01*
X1259500Y1672850D02*
X1341500Y1672850D01*
X1359500Y1672850D02*
X1441500Y1672850D01*
X1459500Y1672850D02*
X1541500Y1672850D01*
X1559500Y1672850D02*
X1641500Y1672850D01*
X1659500Y1672850D02*
X1741500Y1672850D01*
X1760500Y1672850D02*
X1842500Y1672850D01*
X358500Y1671850D02*
X440500Y1671850D01*
X458500Y1671850D02*
X540500Y1671850D01*
X558500Y1671850D02*
X640500Y1671850D01*
X658500Y1671850D02*
X740500Y1671850D01*
X758500Y1671850D02*
X840500Y1671850D01*
X858500Y1671850D02*
X941500Y1671850D01*
X958500Y1671850D02*
X1041500Y1671850D01*
X1059500Y1671850D02*
X1141500Y1671850D01*
X1159500Y1671850D02*
X1241500Y1671850D01*
X1259500Y1671850D02*
X1341500Y1671850D01*
X1359500Y1671850D02*
X1441500Y1671850D01*
X1459500Y1671850D02*
X1541500Y1671850D01*
X1559500Y1671850D02*
X1641500Y1671850D01*
X1659500Y1671850D02*
X1742500Y1671850D01*
X1759500Y1671850D02*
X1842500Y1671850D01*
X358500Y1670850D02*
X440500Y1670850D01*
X458500Y1670850D02*
X540500Y1670850D01*
X558500Y1670850D02*
X640500Y1670850D01*
X658500Y1670850D02*
X740500Y1670850D01*
X758500Y1670850D02*
X841500Y1670850D01*
X858500Y1670850D02*
X941500Y1670850D01*
X958500Y1670850D02*
X1041500Y1670850D01*
X1058500Y1670850D02*
X1141500Y1670850D01*
X1159500Y1670850D02*
X1241500Y1670850D01*
X1259500Y1670850D02*
X1341500Y1670850D01*
X1359500Y1670850D02*
X1441500Y1670850D01*
X1459500Y1670850D02*
X1541500Y1670850D01*
X1559500Y1670850D02*
X1642500Y1670850D01*
X1659500Y1670850D02*
X1742500Y1670850D01*
X1759500Y1670850D02*
X1842500Y1670850D01*
X357500Y1669850D02*
X440500Y1669850D01*
X458500Y1669850D02*
X540500Y1669850D01*
X558500Y1669850D02*
X640500Y1669850D01*
X658500Y1669850D02*
X741500Y1669850D01*
X758500Y1669850D02*
X841500Y1669850D01*
X858500Y1669850D02*
X941500Y1669850D01*
X958500Y1669850D02*
X1041500Y1669850D01*
X1058500Y1669850D02*
X1141500Y1669850D01*
X1158500Y1669850D02*
X1241500Y1669850D01*
X1259500Y1669850D02*
X1341500Y1669850D01*
X1359500Y1669850D02*
X1441500Y1669850D01*
X1459500Y1669850D02*
X1542500Y1669850D01*
X1559500Y1669850D02*
X1642500Y1669850D01*
X1659500Y1669850D02*
X1742500Y1669850D01*
X1759500Y1669850D02*
X1842500Y1669850D01*
X357500Y1668850D02*
X440500Y1668850D01*
X458500Y1668850D02*
X540500Y1668850D01*
X558500Y1668850D02*
X640500Y1668850D01*
X658500Y1668850D02*
X741500Y1668850D01*
X758500Y1668850D02*
X841500Y1668850D01*
X858500Y1668850D02*
X941500Y1668850D01*
X958500Y1668850D02*
X1041500Y1668850D01*
X1058500Y1668850D02*
X1141500Y1668850D01*
X1158500Y1668850D02*
X1241500Y1668850D01*
X1259500Y1668850D02*
X1341500Y1668850D01*
X1359500Y1668850D02*
X1442500Y1668850D01*
X1459500Y1668850D02*
X1542500Y1668850D01*
X1559500Y1668850D02*
X1642500Y1668850D01*
X1659500Y1668850D02*
X1742500Y1668850D01*
X1759500Y1668850D02*
X1842500Y1668850D01*
X357500Y1667850D02*
X440500Y1667850D01*
X457500Y1667850D02*
X540500Y1667850D01*
X558500Y1667850D02*
X641500Y1667850D01*
X658500Y1667850D02*
X741500Y1667850D01*
X758500Y1667850D02*
X841500Y1667850D01*
X858500Y1667850D02*
X941500Y1667850D01*
X958500Y1667850D02*
X1041500Y1667850D01*
X1058500Y1667850D02*
X1141500Y1667850D01*
X1158500Y1667850D02*
X1241500Y1667850D01*
X1258500Y1667850D02*
X1341500Y1667850D01*
X1359500Y1667850D02*
X1442500Y1667850D01*
X1459500Y1667850D02*
X1542500Y1667850D01*
X1559500Y1667850D02*
X1642500Y1667850D01*
X1659500Y1667850D02*
X1742500Y1667850D01*
X1759500Y1667850D02*
X1842500Y1667850D01*
X357500Y1666850D02*
X440500Y1666850D01*
X457500Y1666850D02*
X540500Y1666850D01*
X558500Y1666850D02*
X641500Y1666850D01*
X658500Y1666850D02*
X741500Y1666850D01*
X758500Y1666850D02*
X841500Y1666850D01*
X858500Y1666850D02*
X941500Y1666850D01*
X958500Y1666850D02*
X1041500Y1666850D01*
X1058500Y1666850D02*
X1141500Y1666850D01*
X1158500Y1666850D02*
X1241500Y1666850D01*
X1258500Y1666850D02*
X1341500Y1666850D01*
X1359500Y1666850D02*
X1442500Y1666850D01*
X1459500Y1666850D02*
X1542500Y1666850D01*
X1559500Y1666850D02*
X1642500Y1666850D01*
X1659500Y1666850D02*
X1742500Y1666850D01*
X1759500Y1666850D02*
X1842500Y1666850D01*
X357500Y1665850D02*
X440500Y1665850D01*
X457500Y1665850D02*
X540500Y1665850D01*
X558500Y1665850D02*
X641500Y1665850D01*
X658500Y1665850D02*
X741500Y1665850D01*
X758500Y1665850D02*
X841500Y1665850D01*
X858500Y1665850D02*
X941500Y1665850D01*
X958500Y1665850D02*
X1041500Y1665850D01*
X1058500Y1665850D02*
X1141500Y1665850D01*
X1158500Y1665850D02*
X1241500Y1665850D01*
X1258500Y1665850D02*
X1341500Y1665850D01*
X1359500Y1665850D02*
X1442500Y1665850D01*
X1459500Y1665850D02*
X1542500Y1665850D01*
X1559500Y1665850D02*
X1642500Y1665850D01*
X1659500Y1665850D02*
X1742500Y1665850D01*
X1759500Y1665850D02*
X1842500Y1665850D01*
X357500Y1664850D02*
X440500Y1664850D01*
X458500Y1664850D02*
X540500Y1664850D01*
X558500Y1664850D02*
X641500Y1664850D01*
X658500Y1664850D02*
X741500Y1664850D01*
X758500Y1664850D02*
X841500Y1664850D01*
X858500Y1664850D02*
X941500Y1664850D01*
X958500Y1664850D02*
X1041500Y1664850D01*
X1058500Y1664850D02*
X1141500Y1664850D01*
X1158500Y1664850D02*
X1241500Y1664850D01*
X1258500Y1664850D02*
X1341500Y1664850D01*
X1359500Y1664850D02*
X1442500Y1664850D01*
X1459500Y1664850D02*
X1542500Y1664850D01*
X1559500Y1664850D02*
X1642500Y1664850D01*
X1659500Y1664850D02*
X1742500Y1664850D01*
X1759500Y1664850D02*
X1842500Y1664850D01*
X357500Y1663850D02*
X440500Y1663850D01*
X458500Y1663850D02*
X540500Y1663850D01*
X558500Y1663850D02*
X640500Y1663850D01*
X658500Y1663850D02*
X741500Y1663850D01*
X758500Y1663850D02*
X841500Y1663850D01*
X858500Y1663850D02*
X941500Y1663850D01*
X958500Y1663850D02*
X1041500Y1663850D01*
X1058500Y1663850D02*
X1141500Y1663850D01*
X1158500Y1663850D02*
X1241500Y1663850D01*
X1259500Y1663850D02*
X1341500Y1663850D01*
X1359500Y1663850D02*
X1442500Y1663850D01*
X1459500Y1663850D02*
X1542500Y1663850D01*
X1559500Y1663850D02*
X1642500Y1663850D01*
X1659500Y1663850D02*
X1742500Y1663850D01*
X1759500Y1663850D02*
X1842500Y1663850D01*
X358500Y1662850D02*
X440500Y1662850D01*
X458500Y1662850D02*
X540500Y1662850D01*
X558500Y1662850D02*
X640500Y1662850D01*
X658500Y1662850D02*
X741500Y1662850D01*
X758500Y1662850D02*
X841500Y1662850D01*
X858500Y1662850D02*
X941500Y1662850D01*
X958500Y1662850D02*
X1041500Y1662850D01*
X1058500Y1662850D02*
X1141500Y1662850D01*
X1159500Y1662850D02*
X1241500Y1662850D01*
X1259500Y1662850D02*
X1341500Y1662850D01*
X1359500Y1662850D02*
X1441500Y1662850D01*
X1459500Y1662850D02*
X1542500Y1662850D01*
X1559500Y1662850D02*
X1642500Y1662850D01*
X1659500Y1662850D02*
X1742500Y1662850D01*
X1759500Y1662850D02*
X1842500Y1662850D01*
X358500Y1661850D02*
X440500Y1661850D01*
X458500Y1661850D02*
X540500Y1661850D01*
X558500Y1661850D02*
X640500Y1661850D01*
X658500Y1661850D02*
X740500Y1661850D01*
X758500Y1661850D02*
X841500Y1661850D01*
X858500Y1661850D02*
X941500Y1661850D01*
X958500Y1661850D02*
X1041500Y1661850D01*
X1058500Y1661850D02*
X1141500Y1661850D01*
X1159500Y1661850D02*
X1241500Y1661850D01*
X1259500Y1661850D02*
X1341500Y1661850D01*
X1359500Y1661850D02*
X1441500Y1661850D01*
X1459500Y1661850D02*
X1541500Y1661850D01*
X1559500Y1661850D02*
X1641500Y1661850D01*
X1659500Y1661850D02*
X1742500Y1661850D01*
X1759500Y1661850D02*
X1842500Y1661850D01*
X358500Y1660850D02*
X440500Y1660850D01*
X458500Y1660850D02*
X540500Y1660850D01*
X558500Y1660850D02*
X640500Y1660850D01*
X658500Y1660850D02*
X740500Y1660850D01*
X758500Y1660850D02*
X840500Y1660850D01*
X858500Y1660850D02*
X940500Y1660850D01*
X959500Y1660850D02*
X1041500Y1660850D01*
X1059500Y1660850D02*
X1141500Y1660850D01*
X1159500Y1660850D02*
X1241500Y1660850D01*
X1259500Y1660850D02*
X1341500Y1660850D01*
X1359500Y1660850D02*
X1441500Y1660850D01*
X1459500Y1660850D02*
X1541500Y1660850D01*
X1559500Y1660850D02*
X1641500Y1660850D01*
X1659500Y1660850D02*
X1741500Y1660850D01*
X1760500Y1660850D02*
X1842500Y1660850D01*
X358500Y1659850D02*
X440500Y1659850D01*
X458500Y1659850D02*
X540500Y1659850D01*
X558500Y1659850D02*
X640500Y1659850D01*
X658500Y1659850D02*
X740500Y1659850D01*
X758500Y1659850D02*
X840500Y1659850D01*
X859500Y1659850D02*
X940500Y1659850D01*
X959500Y1659850D02*
X1040500Y1659850D01*
X1059500Y1659850D02*
X1141500Y1659850D01*
X1159500Y1659850D02*
X1241500Y1659850D01*
X1259500Y1659850D02*
X1341500Y1659850D01*
X1359500Y1659850D02*
X1441500Y1659850D01*
X1459500Y1659850D02*
X1541500Y1659850D01*
X1559500Y1659850D02*
X1641500Y1659850D01*
X1660500Y1659850D02*
X1741500Y1659850D01*
X1760500Y1659850D02*
X1841500Y1659850D01*
X358500Y1658850D02*
X440500Y1658850D01*
X458500Y1658850D02*
X540500Y1658850D01*
X558500Y1658850D02*
X640500Y1658850D01*
X658500Y1658850D02*
X740500Y1658850D01*
X759500Y1658850D02*
X840500Y1658850D01*
X859500Y1658850D02*
X940500Y1658850D01*
X959500Y1658850D02*
X1040500Y1658850D01*
X1059500Y1658850D02*
X1140500Y1658850D01*
X1159500Y1658850D02*
X1241500Y1658850D01*
X1259500Y1658850D02*
X1341500Y1658850D01*
X1359500Y1658850D02*
X1441500Y1658850D01*
X1459500Y1658850D02*
X1541500Y1658850D01*
X1560500Y1658850D02*
X1641500Y1658850D01*
X1660500Y1658850D02*
X1741500Y1658850D01*
X1760500Y1658850D02*
X1841500Y1658850D01*
X358500Y1657850D02*
X439500Y1657850D01*
X458500Y1657850D02*
X540500Y1657850D01*
X559500Y1657850D02*
X640500Y1657850D01*
X659500Y1657850D02*
X740500Y1657850D01*
X759500Y1657850D02*
X840500Y1657850D01*
X859500Y1657850D02*
X940500Y1657850D01*
X959500Y1657850D02*
X1040500Y1657850D01*
X1059500Y1657850D02*
X1140500Y1657850D01*
X1159500Y1657850D02*
X1240500Y1657850D01*
X1259500Y1657850D02*
X1340500Y1657850D01*
X1360500Y1657850D02*
X1441500Y1657850D01*
X1460500Y1657850D02*
X1541500Y1657850D01*
X1560500Y1657850D02*
X1641500Y1657850D01*
X1660500Y1657850D02*
X1741500Y1657850D01*
X1760500Y1657850D02*
X1841500Y1657850D01*
X359500Y1656850D02*
X439500Y1656850D01*
X459500Y1656850D02*
X539500Y1656850D01*
X559500Y1656850D02*
X639500Y1656850D01*
X659500Y1656850D02*
X739500Y1656850D01*
X759500Y1656850D02*
X840500Y1656850D01*
X859500Y1656850D02*
X940500Y1656850D01*
X959500Y1656850D02*
X1040500Y1656850D01*
X1059500Y1656850D02*
X1140500Y1656850D01*
X1160500Y1656850D02*
X1240500Y1656850D01*
X1260500Y1656850D02*
X1340500Y1656850D01*
X1360500Y1656850D02*
X1440500Y1656850D01*
X1460500Y1656850D02*
X1541500Y1656850D01*
X1560500Y1656850D02*
X1641500Y1656850D01*
X1660500Y1656850D02*
X1741500Y1656850D01*
X1760500Y1656850D02*
X1841500Y1656850D01*
X359500Y1655850D02*
X439500Y1655850D01*
X459500Y1655850D02*
X539500Y1655850D01*
X559500Y1655850D02*
X639500Y1655850D01*
X659500Y1655850D02*
X739500Y1655850D01*
X759500Y1655850D02*
X839500Y1655850D01*
X859500Y1655850D02*
X939500Y1655850D01*
X960500Y1655850D02*
X1040500Y1655850D01*
X1060500Y1655850D02*
X1140500Y1655850D01*
X1160500Y1655850D02*
X1240500Y1655850D01*
X1260500Y1655850D02*
X1340500Y1655850D01*
X1360500Y1655850D02*
X1440500Y1655850D01*
X1460500Y1655850D02*
X1540500Y1655850D01*
X1560500Y1655850D02*
X1640500Y1655850D01*
X1660500Y1655850D02*
X1740500Y1655850D01*
X1761500Y1655850D02*
X1841500Y1655850D01*
X359500Y1654850D02*
X439500Y1654850D01*
X459500Y1654850D02*
X539500Y1654850D01*
X559500Y1654850D02*
X639500Y1654850D01*
X659500Y1654850D02*
X739500Y1654850D01*
X760500Y1654850D02*
X839500Y1654850D01*
X860500Y1654850D02*
X939500Y1654850D01*
X960500Y1654850D02*
X1039500Y1654850D01*
X1060500Y1654850D02*
X1139500Y1654850D01*
X1160500Y1654850D02*
X1240500Y1654850D01*
X1260500Y1654850D02*
X1340500Y1654850D01*
X1360500Y1654850D02*
X1440500Y1654850D01*
X1460500Y1654850D02*
X1540500Y1654850D01*
X1561500Y1654850D02*
X1640500Y1654850D01*
X1661500Y1654850D02*
X1740500Y1654850D01*
X1761500Y1654850D02*
X1840500Y1654850D01*
X359500Y1653850D02*
X438500Y1653850D01*
X459500Y1653850D02*
X538500Y1653850D01*
X560500Y1653850D02*
X639500Y1653850D01*
X660500Y1653850D02*
X739500Y1653850D01*
X760500Y1653850D02*
X839500Y1653850D01*
X860500Y1653850D02*
X939500Y1653850D01*
X960500Y1653850D02*
X1039500Y1653850D01*
X1060500Y1653850D02*
X1139500Y1653850D01*
X1160500Y1653850D02*
X1239500Y1653850D01*
X1260500Y1653850D02*
X1339500Y1653850D01*
X1361500Y1653850D02*
X1440500Y1653850D01*
X1461500Y1653850D02*
X1540500Y1653850D01*
X1561500Y1653850D02*
X1640500Y1653850D01*
X1661500Y1653850D02*
X1740500Y1653850D01*
X1761500Y1653850D02*
X1840500Y1653850D01*
X360500Y1652850D02*
X438500Y1652850D01*
X460500Y1652850D02*
X538500Y1652850D01*
X560500Y1652850D02*
X638500Y1652850D01*
X660500Y1652850D02*
X738500Y1652850D01*
X760500Y1652850D02*
X838500Y1652850D01*
X860500Y1652850D02*
X939500Y1652850D01*
X960500Y1652850D02*
X1039500Y1652850D01*
X1061500Y1652850D02*
X1139500Y1652850D01*
X1161500Y1652850D02*
X1239500Y1652850D01*
X1261500Y1652850D02*
X1339500Y1652850D01*
X1361500Y1652850D02*
X1439500Y1652850D01*
X1461500Y1652850D02*
X1539500Y1652850D01*
X1561500Y1652850D02*
X1639500Y1652850D01*
X1661500Y1652850D02*
X1740500Y1652850D01*
X1761500Y1652850D02*
X1840500Y1652850D01*
X360500Y1651850D02*
X438500Y1651850D01*
X460500Y1651850D02*
X538500Y1651850D01*
X560500Y1651850D02*
X638500Y1651850D01*
X660500Y1651850D02*
X738500Y1651850D01*
X761500Y1651850D02*
X838500Y1651850D01*
X861500Y1651850D02*
X938500Y1651850D01*
X961500Y1651850D02*
X1038500Y1651850D01*
X1061500Y1651850D02*
X1139500Y1651850D01*
X1161500Y1651850D02*
X1239500Y1651850D01*
X1261500Y1651850D02*
X1339500Y1651850D01*
X1361500Y1651850D02*
X1439500Y1651850D01*
X1461500Y1651850D02*
X1539500Y1651850D01*
X1561500Y1651850D02*
X1639500Y1651850D01*
X1662500Y1651850D02*
X1739500Y1651850D01*
X1762500Y1651850D02*
X1839500Y1651850D01*
X360500Y1650850D02*
X437500Y1650850D01*
X460500Y1650850D02*
X537500Y1650850D01*
X561500Y1650850D02*
X638500Y1650850D01*
X661500Y1650850D02*
X738500Y1650850D01*
X761500Y1650850D02*
X838500Y1650850D01*
X861500Y1650850D02*
X938500Y1650850D01*
X961500Y1650850D02*
X1038500Y1650850D01*
X1061500Y1650850D02*
X1138500Y1650850D01*
X1161500Y1650850D02*
X1238500Y1650850D01*
X1261500Y1650850D02*
X1338500Y1650850D01*
X1362500Y1650850D02*
X1439500Y1650850D01*
X1462500Y1650850D02*
X1539500Y1650850D01*
X1562500Y1650850D02*
X1639500Y1650850D01*
X1662500Y1650850D02*
X1739500Y1650850D01*
X1762500Y1650850D02*
X1839500Y1650850D01*
X361500Y1649850D02*
X437500Y1649850D01*
X461500Y1649850D02*
X537500Y1649850D01*
X561500Y1649850D02*
X637500Y1649850D01*
X661500Y1649850D02*
X737500Y1649850D01*
X761500Y1649850D02*
X837500Y1649850D01*
X861500Y1649850D02*
X937500Y1649850D01*
X962500Y1649850D02*
X1038500Y1649850D01*
X1062500Y1649850D02*
X1138500Y1649850D01*
X1162500Y1649850D02*
X1238500Y1649850D01*
X1262500Y1649850D02*
X1338500Y1649850D01*
X1362500Y1649850D02*
X1438500Y1649850D01*
X1462500Y1649850D02*
X1538500Y1649850D01*
X1562500Y1649850D02*
X1638500Y1649850D01*
X1662500Y1649850D02*
X1738500Y1649850D01*
X1763500Y1649850D02*
X1839500Y1649850D01*
X361500Y1648850D02*
X436500Y1648850D01*
X461500Y1648850D02*
X537500Y1648850D01*
X562500Y1648850D02*
X637500Y1648850D01*
X662500Y1648850D02*
X737500Y1648850D01*
X762500Y1648850D02*
X837500Y1648850D01*
X862500Y1648850D02*
X937500Y1648850D01*
X962500Y1648850D02*
X1037500Y1648850D01*
X1062500Y1648850D02*
X1137500Y1648850D01*
X1162500Y1648850D02*
X1237500Y1648850D01*
X1262500Y1648850D02*
X1337500Y1648850D01*
X1363500Y1648850D02*
X1438500Y1648850D01*
X1463500Y1648850D02*
X1538500Y1648850D01*
X1563500Y1648850D02*
X1638500Y1648850D01*
X1663500Y1648850D02*
X1738500Y1648850D01*
X1763500Y1648850D02*
X1838500Y1648850D01*
X362500Y1647850D02*
X436500Y1647850D01*
X462500Y1647850D02*
X536500Y1647850D01*
X562500Y1647850D02*
X636500Y1647850D01*
X662500Y1647850D02*
X736500Y1647850D01*
X762500Y1647850D02*
X836500Y1647850D01*
X862500Y1647850D02*
X937500Y1647850D01*
X963500Y1647850D02*
X1037500Y1647850D01*
X1063500Y1647850D02*
X1137500Y1647850D01*
X1163500Y1647850D02*
X1237500Y1647850D01*
X1263500Y1647850D02*
X1337500Y1647850D01*
X1363500Y1647850D02*
X1437500Y1647850D01*
X1463500Y1647850D02*
X1537500Y1647850D01*
X1563500Y1647850D02*
X1637500Y1647850D01*
X1663500Y1647850D02*
X1737500Y1647850D01*
X1764500Y1647850D02*
X1838500Y1647850D01*
X362500Y1646850D02*
X435500Y1646850D01*
X462500Y1646850D02*
X536500Y1646850D01*
X563500Y1646850D02*
X636500Y1646850D01*
X663500Y1646850D02*
X736500Y1646850D01*
X763500Y1646850D02*
X836500Y1646850D01*
X863500Y1646850D02*
X936500Y1646850D01*
X963500Y1646850D02*
X1036500Y1646850D01*
X1063500Y1646850D02*
X1136500Y1646850D01*
X1163500Y1646850D02*
X1236500Y1646850D01*
X1263500Y1646850D02*
X1336500Y1646850D01*
X1364500Y1646850D02*
X1437500Y1646850D01*
X1464500Y1646850D02*
X1537500Y1646850D01*
X1564500Y1646850D02*
X1637500Y1646850D01*
X1664500Y1646850D02*
X1737500Y1646850D01*
X1764500Y1646850D02*
X1837500Y1646850D01*
X363500Y1645850D02*
X435500Y1645850D01*
X463500Y1645850D02*
X535500Y1645850D01*
X563500Y1645850D02*
X635500Y1645850D01*
X663500Y1645850D02*
X735500Y1645850D01*
X763500Y1645850D02*
X835500Y1645850D01*
X863500Y1645850D02*
X935500Y1645850D01*
X964500Y1645850D02*
X1036500Y1645850D01*
X1064500Y1645850D02*
X1136500Y1645850D01*
X1164500Y1645850D02*
X1236500Y1645850D01*
X1264500Y1645850D02*
X1336500Y1645850D01*
X1364500Y1645850D02*
X1436500Y1645850D01*
X1464500Y1645850D02*
X1536500Y1645850D01*
X1564500Y1645850D02*
X1636500Y1645850D01*
X1664500Y1645850D02*
X1736500Y1645850D01*
X1765500Y1645850D02*
X1837500Y1645850D01*
X363500Y1644850D02*
X434500Y1644850D01*
X464500Y1644850D02*
X534500Y1644850D01*
X564500Y1644850D02*
X634500Y1644850D01*
X664500Y1644850D02*
X735500Y1644850D01*
X764500Y1644850D02*
X835500Y1644850D01*
X864500Y1644850D02*
X935500Y1644850D01*
X964500Y1644850D02*
X1035500Y1644850D01*
X1064500Y1644850D02*
X1135500Y1644850D01*
X1164500Y1644850D02*
X1235500Y1644850D01*
X1265500Y1644850D02*
X1335500Y1644850D01*
X1365500Y1644850D02*
X1435500Y1644850D01*
X1465500Y1644850D02*
X1536500Y1644850D01*
X1565500Y1644850D02*
X1636500Y1644850D01*
X1665500Y1644850D02*
X1736500Y1644850D01*
X1765500Y1644850D02*
X1836500Y1644850D01*
X364500Y1643850D02*
X434500Y1643850D01*
X464500Y1643850D02*
X534500Y1643850D01*
X564500Y1643850D02*
X634500Y1643850D01*
X664500Y1643850D02*
X734500Y1643850D01*
X765500Y1643850D02*
X834500Y1643850D01*
X865500Y1643850D02*
X934500Y1643850D01*
X965500Y1643850D02*
X1034500Y1643850D01*
X1065500Y1643850D02*
X1134500Y1643850D01*
X1165500Y1643850D02*
X1235500Y1643850D01*
X1265500Y1643850D02*
X1335500Y1643850D01*
X1365500Y1643850D02*
X1435500Y1643850D01*
X1465500Y1643850D02*
X1535500Y1643850D01*
X1566500Y1643850D02*
X1635500Y1643850D01*
X1666500Y1643850D02*
X1735500Y1643850D01*
X1766500Y1643850D02*
X1835500Y1643850D01*
X365500Y1642850D02*
X433500Y1642850D01*
X465500Y1642850D02*
X533500Y1642850D01*
X565500Y1642850D02*
X633500Y1642850D01*
X665500Y1642850D02*
X733500Y1642850D01*
X765500Y1642850D02*
X833500Y1642850D01*
X865500Y1642850D02*
X934500Y1642850D01*
X965500Y1642850D02*
X1034500Y1642850D01*
X1066500Y1642850D02*
X1134500Y1642850D01*
X1166500Y1642850D02*
X1234500Y1642850D01*
X1266500Y1642850D02*
X1334500Y1642850D01*
X1366500Y1642850D02*
X1434500Y1642850D01*
X1466500Y1642850D02*
X1534500Y1642850D01*
X1566500Y1642850D02*
X1634500Y1642850D01*
X1666500Y1642850D02*
X1734500Y1642850D01*
X1767500Y1642850D02*
X1835500Y1642850D01*
X365500Y1641850D02*
X432500Y1641850D01*
X466500Y1641850D02*
X532500Y1641850D01*
X566500Y1641850D02*
X632500Y1641850D01*
X666500Y1641850D02*
X733500Y1641850D01*
X766500Y1641850D02*
X833500Y1641850D01*
X866500Y1641850D02*
X933500Y1641850D01*
X966500Y1641850D02*
X1033500Y1641850D01*
X1066500Y1641850D02*
X1133500Y1641850D01*
X1166500Y1641850D02*
X1233500Y1641850D01*
X1267500Y1641850D02*
X1333500Y1641850D01*
X1367500Y1641850D02*
X1433500Y1641850D01*
X1467500Y1641850D02*
X1534500Y1641850D01*
X1567500Y1641850D02*
X1634500Y1641850D01*
X1667500Y1641850D02*
X1734500Y1641850D01*
X1767500Y1641850D02*
X1834500Y1641850D01*
X366500Y1640850D02*
X431500Y1640850D01*
X466500Y1640850D02*
X532500Y1640850D01*
X566500Y1640850D02*
X632500Y1640850D01*
X667500Y1640850D02*
X732500Y1640850D01*
X767500Y1640850D02*
X832500Y1640850D01*
X867500Y1640850D02*
X932500Y1640850D01*
X967500Y1640850D02*
X1032500Y1640850D01*
X1067500Y1640850D02*
X1132500Y1640850D01*
X1167500Y1640850D02*
X1232500Y1640850D01*
X1267500Y1640850D02*
X1333500Y1640850D01*
X1368500Y1640850D02*
X1433500Y1640850D01*
X1468500Y1640850D02*
X1533500Y1640850D01*
X1568500Y1640850D02*
X1633500Y1640850D01*
X1668500Y1640850D02*
X1733500Y1640850D01*
X1768500Y1640850D02*
X1833500Y1640850D01*
X367500Y1639850D02*
X431500Y1639850D01*
X467500Y1639850D02*
X531500Y1639850D01*
X567500Y1639850D02*
X631500Y1639850D01*
X667500Y1639850D02*
X731500Y1639850D01*
X767500Y1639850D02*
X831500Y1639850D01*
X868500Y1639850D02*
X931500Y1639850D01*
X968500Y1639850D02*
X1031500Y1639850D01*
X1068500Y1639850D02*
X1132500Y1639850D01*
X1168500Y1639850D02*
X1232500Y1639850D01*
X1268500Y1639850D02*
X1332500Y1639850D01*
X1368500Y1639850D02*
X1432500Y1639850D01*
X1468500Y1639850D02*
X1532500Y1639850D01*
X1568500Y1639850D02*
X1632500Y1639850D01*
X1669500Y1639850D02*
X1732500Y1639850D01*
X1769500Y1639850D02*
X1832500Y1639850D01*
X368500Y1638850D02*
X430500Y1638850D01*
X468500Y1638850D02*
X530500Y1638850D01*
X568500Y1638850D02*
X630500Y1638850D01*
X668500Y1638850D02*
X730500Y1638850D01*
X768500Y1638850D02*
X830500Y1638850D01*
X868500Y1638850D02*
X930500Y1638850D01*
X969500Y1638850D02*
X1031500Y1638850D01*
X1069500Y1638850D02*
X1131500Y1638850D01*
X1169500Y1638850D02*
X1231500Y1638850D01*
X1269500Y1638850D02*
X1331500Y1638850D01*
X1369500Y1638850D02*
X1431500Y1638850D01*
X1469500Y1638850D02*
X1531500Y1638850D01*
X1569500Y1638850D02*
X1631500Y1638850D01*
X1669500Y1638850D02*
X1731500Y1638850D01*
X1770500Y1638850D02*
X1832500Y1638850D01*
X369500Y1637850D02*
X429500Y1637850D01*
X469500Y1637850D02*
X529500Y1637850D01*
X569500Y1637850D02*
X629500Y1637850D01*
X669500Y1637850D02*
X729500Y1637850D01*
X769500Y1637850D02*
X829500Y1637850D01*
X869500Y1637850D02*
X930500Y1637850D01*
X969500Y1637850D02*
X1030500Y1637850D01*
X1070500Y1637850D02*
X1130500Y1637850D01*
X1170500Y1637850D02*
X1230500Y1637850D01*
X1270500Y1637850D02*
X1330500Y1637850D01*
X1370500Y1637850D02*
X1430500Y1637850D01*
X1470500Y1637850D02*
X1530500Y1637850D01*
X1570500Y1637850D02*
X1630500Y1637850D01*
X1670500Y1637850D02*
X1730500Y1637850D01*
X1770500Y1637850D02*
X1831500Y1637850D01*
X370500Y1636850D02*
X428500Y1636850D01*
X470500Y1636850D02*
X528500Y1636850D01*
X570500Y1636850D02*
X628500Y1636850D01*
X670500Y1636850D02*
X728500Y1636850D01*
X770500Y1636850D02*
X828500Y1636850D01*
X870500Y1636850D02*
X929500Y1636850D01*
X970500Y1636850D02*
X1029500Y1636850D01*
X1071500Y1636850D02*
X1129500Y1636850D01*
X1171500Y1636850D02*
X1229500Y1636850D01*
X1271500Y1636850D02*
X1329500Y1636850D01*
X1371500Y1636850D02*
X1429500Y1636850D01*
X1471500Y1636850D02*
X1529500Y1636850D01*
X1571500Y1636850D02*
X1629500Y1636850D01*
X1671500Y1636850D02*
X1730500Y1636850D01*
X1771500Y1636850D02*
X1830500Y1636850D01*
X371500Y1635850D02*
X427500Y1635850D01*
X471500Y1635850D02*
X527500Y1635850D01*
X571500Y1635850D02*
X627500Y1635850D01*
X671500Y1635850D02*
X727500Y1635850D01*
X771500Y1635850D02*
X827500Y1635850D01*
X871500Y1635850D02*
X928500Y1635850D01*
X971500Y1635850D02*
X1028500Y1635850D01*
X1072500Y1635850D02*
X1128500Y1635850D01*
X1172500Y1635850D02*
X1228500Y1635850D01*
X1272500Y1635850D02*
X1328500Y1635850D01*
X1372500Y1635850D02*
X1428500Y1635850D01*
X1472500Y1635850D02*
X1528500Y1635850D01*
X1572500Y1635850D02*
X1628500Y1635850D01*
X1672500Y1635850D02*
X1728500Y1635850D01*
X1773500Y1635850D02*
X1829500Y1635850D01*
X372500Y1634850D02*
X426500Y1634850D01*
X472500Y1634850D02*
X526500Y1634850D01*
X572500Y1634850D02*
X626500Y1634850D01*
X672500Y1634850D02*
X726500Y1634850D01*
X772500Y1634850D02*
X826500Y1634850D01*
X872500Y1634850D02*
X926500Y1634850D01*
X973500Y1634850D02*
X1027500Y1634850D01*
X1073500Y1634850D02*
X1127500Y1634850D01*
X1173500Y1634850D02*
X1227500Y1634850D01*
X1273500Y1634850D02*
X1327500Y1634850D01*
X1373500Y1634850D02*
X1427500Y1634850D01*
X1473500Y1634850D02*
X1527500Y1634850D01*
X1573500Y1634850D02*
X1627500Y1634850D01*
X1673500Y1634850D02*
X1727500Y1634850D01*
X1774500Y1634850D02*
X1828500Y1634850D01*
X373500Y1633850D02*
X425500Y1633850D01*
X473500Y1633850D02*
X525500Y1633850D01*
X573500Y1633850D02*
X625500Y1633850D01*
X673500Y1633850D02*
X725500Y1633850D01*
X774500Y1633850D02*
X825500Y1633850D01*
X874500Y1633850D02*
X925500Y1633850D01*
X974500Y1633850D02*
X1025500Y1633850D01*
X1074500Y1633850D02*
X1125500Y1633850D01*
X1174500Y1633850D02*
X1226500Y1633850D01*
X1274500Y1633850D02*
X1326500Y1633850D01*
X1374500Y1633850D02*
X1426500Y1633850D01*
X1474500Y1633850D02*
X1526500Y1633850D01*
X1575500Y1633850D02*
X1626500Y1633850D01*
X1675500Y1633850D02*
X1726500Y1633850D01*
X1775500Y1633850D02*
X1826500Y1633850D01*
X374500Y1632850D02*
X423500Y1632850D01*
X475500Y1632850D02*
X523500Y1632850D01*
X575500Y1632850D02*
X623500Y1632850D01*
X675500Y1632850D02*
X724500Y1632850D01*
X775500Y1632850D02*
X824500Y1632850D01*
X875500Y1632850D02*
X924500Y1632850D01*
X975500Y1632850D02*
X1024500Y1632850D01*
X1075500Y1632850D02*
X1124500Y1632850D01*
X1175500Y1632850D02*
X1224500Y1632850D01*
X1276500Y1632850D02*
X1324500Y1632850D01*
X1376500Y1632850D02*
X1424500Y1632850D01*
X1476500Y1632850D02*
X1525500Y1632850D01*
X1576500Y1632850D02*
X1625500Y1632850D01*
X1676500Y1632850D02*
X1725500Y1632850D01*
X1776500Y1632850D02*
X1825500Y1632850D01*
X376500Y1631850D02*
X422500Y1631850D01*
X476500Y1631850D02*
X522500Y1631850D01*
X576500Y1631850D02*
X622500Y1631850D01*
X676500Y1631850D02*
X722500Y1631850D01*
X776500Y1631850D02*
X822500Y1631850D01*
X876500Y1631850D02*
X922500Y1631850D01*
X977500Y1631850D02*
X1023500Y1631850D01*
X1077500Y1631850D02*
X1123500Y1631850D01*
X1177500Y1631850D02*
X1223500Y1631850D01*
X1277500Y1631850D02*
X1323500Y1631850D01*
X1377500Y1631850D02*
X1423500Y1631850D01*
X1477500Y1631850D02*
X1523500Y1631850D01*
X1577500Y1631850D02*
X1623500Y1631850D01*
X1677500Y1631850D02*
X1723500Y1631850D01*
X1778500Y1631850D02*
X1824500Y1631850D01*
X377500Y1630850D02*
X420500Y1630850D01*
X478500Y1630850D02*
X520500Y1630850D01*
X578500Y1630850D02*
X620500Y1630850D01*
X678500Y1630850D02*
X721500Y1630850D01*
X778500Y1630850D02*
X821500Y1630850D01*
X878500Y1630850D02*
X921500Y1630850D01*
X978500Y1630850D02*
X1021500Y1630850D01*
X1078500Y1630850D02*
X1121500Y1630850D01*
X1178500Y1630850D02*
X1221500Y1630850D01*
X1279500Y1630850D02*
X1321500Y1630850D01*
X1379500Y1630850D02*
X1422500Y1630850D01*
X1479500Y1630850D02*
X1522500Y1630850D01*
X1579500Y1630850D02*
X1622500Y1630850D01*
X1679500Y1630850D02*
X1722500Y1630850D01*
X1779500Y1630850D02*
X1822500Y1630850D01*
X379500Y1629850D02*
X419500Y1629850D01*
X479500Y1629850D02*
X519500Y1629850D01*
X579500Y1629850D02*
X619500Y1629850D01*
X679500Y1629850D02*
X719500Y1629850D01*
X780500Y1629850D02*
X819500Y1629850D01*
X880500Y1629850D02*
X919500Y1629850D01*
X980500Y1629850D02*
X1019500Y1629850D01*
X1080500Y1629850D02*
X1119500Y1629850D01*
X1180500Y1629850D02*
X1220500Y1629850D01*
X1280500Y1629850D02*
X1320500Y1629850D01*
X1380500Y1629850D02*
X1420500Y1629850D01*
X1480500Y1629850D02*
X1520500Y1629850D01*
X1581500Y1629850D02*
X1620500Y1629850D01*
X1681500Y1629850D02*
X1720500Y1629850D01*
X1781500Y1629850D02*
X1820500Y1629850D01*
X381500Y1628850D02*
X417500Y1628850D01*
X481500Y1628850D02*
X517500Y1628850D01*
X581500Y1628850D02*
X617500Y1628850D01*
X681500Y1628850D02*
X717500Y1628850D01*
X781500Y1628850D02*
X817500Y1628850D01*
X882500Y1628850D02*
X917500Y1628850D01*
X982500Y1628850D02*
X1017500Y1628850D01*
X1082500Y1628850D02*
X1118500Y1628850D01*
X1182500Y1628850D02*
X1218500Y1628850D01*
X1282500Y1628850D02*
X1318500Y1628850D01*
X1382500Y1628850D02*
X1418500Y1628850D01*
X1482500Y1628850D02*
X1518500Y1628850D01*
X1582500Y1628850D02*
X1618500Y1628850D01*
X1683500Y1628850D02*
X1718500Y1628850D01*
X1783500Y1628850D02*
X1818500Y1628850D01*
X383500Y1627850D02*
X415500Y1627850D01*
X483500Y1627850D02*
X515500Y1627850D01*
X583500Y1627850D02*
X615500Y1627850D01*
X683500Y1627850D02*
X715500Y1627850D01*
X784500Y1627850D02*
X815500Y1627850D01*
X884500Y1627850D02*
X915500Y1627850D01*
X984500Y1627850D02*
X1015500Y1627850D01*
X1084500Y1627850D02*
X1115500Y1627850D01*
X1184500Y1627850D02*
X1216500Y1627850D01*
X1284500Y1627850D02*
X1316500Y1627850D01*
X1384500Y1627850D02*
X1416500Y1627850D01*
X1484500Y1627850D02*
X1516500Y1627850D01*
X1585500Y1627850D02*
X1616500Y1627850D01*
X1685500Y1627850D02*
X1716500Y1627850D01*
X1785500Y1627850D02*
X1816500Y1627850D01*
X386500Y1626850D02*
X412500Y1626850D01*
X486500Y1626850D02*
X512500Y1626850D01*
X586500Y1626850D02*
X612500Y1626850D01*
X686500Y1626850D02*
X712500Y1626850D01*
X786500Y1626850D02*
X812500Y1626850D01*
X886500Y1626850D02*
X912500Y1626850D01*
X987500Y1626850D02*
X1013500Y1626850D01*
X1087500Y1626850D02*
X1113500Y1626850D01*
X1187500Y1626850D02*
X1213500Y1626850D01*
X1287500Y1626850D02*
X1313500Y1626850D01*
X1387500Y1626850D02*
X1413500Y1626850D01*
X1487500Y1626850D02*
X1513500Y1626850D01*
X1587500Y1626850D02*
X1613500Y1626850D01*
X1687500Y1626850D02*
X1713500Y1626850D01*
X1788500Y1626850D02*
X1814500Y1626850D01*
X389500Y1625850D02*
X408500Y1625850D01*
X490500Y1625850D02*
X508500Y1625850D01*
X590500Y1625850D02*
X608500Y1625850D01*
X690500Y1625850D02*
X709500Y1625850D01*
X790500Y1625850D02*
X809500Y1625850D01*
X890500Y1625850D02*
X909500Y1625850D01*
X990500Y1625850D02*
X1009500Y1625850D01*
X1090500Y1625850D02*
X1109500Y1625850D01*
X1190500Y1625850D02*
X1209500Y1625850D01*
X1291500Y1625850D02*
X1309500Y1625850D01*
X1391500Y1625850D02*
X1409500Y1625850D01*
X1491500Y1625850D02*
X1510500Y1625850D01*
X1591500Y1625850D02*
X1610500Y1625850D01*
X1691500Y1625850D02*
X1710500Y1625850D01*
X1791500Y1625850D02*
X1810500Y1625850D01*
X395500Y1624850D02*
X403500Y1624850D01*
X495500Y1624850D02*
X503500Y1624850D01*
X595500Y1624850D02*
X603500Y1624850D01*
X695500Y1624850D02*
X703500Y1624850D01*
X795500Y1624850D02*
X803500Y1624850D01*
X896500Y1624850D02*
X903500Y1624850D01*
X996500Y1624850D02*
X1003500Y1624850D01*
X1096500Y1624850D02*
X1104500Y1624850D01*
X1196500Y1624850D02*
X1204500Y1624850D01*
X1296500Y1624850D02*
X1304500Y1624850D01*
X1396500Y1624850D02*
X1404500Y1624850D01*
X1496500Y1624850D02*
X1504500Y1624850D01*
X1596500Y1624850D02*
X1604500Y1624850D01*
X1697500Y1624850D02*
X1704500Y1624850D01*
X1797500Y1624850D02*
X1804500Y1624850D01*
X393500Y706850D02*
X404500Y706850D01*
X493500Y706850D02*
X504500Y706850D01*
X594500Y706850D02*
X605500Y706850D01*
X694500Y706850D02*
X705500Y706850D01*
X794500Y706850D02*
X805500Y706850D01*
X894500Y706850D02*
X905500Y706850D01*
X994500Y706850D02*
X1005500Y706850D01*
X1094500Y706850D02*
X1105500Y706850D01*
X1194500Y706850D02*
X1205500Y706850D01*
X1294500Y706850D02*
X1305500Y706850D01*
X1395500Y706850D02*
X1406500Y706850D01*
X1495500Y706850D02*
X1506500Y706850D01*
X1595500Y706850D02*
X1606500Y706850D01*
X1695500Y706850D02*
X1706500Y706850D01*
X1795500Y706850D02*
X1806500Y706850D01*
X388500Y705850D02*
X409500Y705850D01*
X489500Y705850D02*
X509500Y705850D01*
X589500Y705850D02*
X609500Y705850D01*
X689500Y705850D02*
X710500Y705850D01*
X789500Y705850D02*
X810500Y705850D01*
X889500Y705850D02*
X910500Y705850D01*
X989500Y705850D02*
X1010500Y705850D01*
X1089500Y705850D02*
X1110500Y705850D01*
X1189500Y705850D02*
X1210500Y705850D01*
X1290500Y705850D02*
X1310500Y705850D01*
X1390500Y705850D02*
X1410500Y705850D01*
X1490500Y705850D02*
X1511500Y705850D01*
X1590500Y705850D02*
X1611500Y705850D01*
X1690500Y705850D02*
X1711500Y705850D01*
X1790500Y705850D02*
X1811500Y705850D01*
X385500Y704850D02*
X413500Y704850D01*
X485500Y704850D02*
X513500Y704850D01*
X585500Y704850D02*
X613500Y704850D01*
X686500Y704850D02*
X713500Y704850D01*
X786500Y704850D02*
X813500Y704850D01*
X886500Y704850D02*
X913500Y704850D01*
X986500Y704850D02*
X1013500Y704850D01*
X1086500Y704850D02*
X1113500Y704850D01*
X1186500Y704850D02*
X1214500Y704850D01*
X1286500Y704850D02*
X1314500Y704850D01*
X1386500Y704850D02*
X1414500Y704850D01*
X1487500Y704850D02*
X1514500Y704850D01*
X1587500Y704850D02*
X1614500Y704850D01*
X1687500Y704850D02*
X1714500Y704850D01*
X1787500Y704850D02*
X1814500Y704850D01*
X383500Y703850D02*
X415500Y703850D01*
X483500Y703850D02*
X515500Y703850D01*
X583500Y703850D02*
X615500Y703850D01*
X683500Y703850D02*
X716500Y703850D01*
X783500Y703850D02*
X816500Y703850D01*
X883500Y703850D02*
X916500Y703850D01*
X983500Y703850D02*
X1016500Y703850D01*
X1083500Y703850D02*
X1116500Y703850D01*
X1184500Y703850D02*
X1216500Y703850D01*
X1284500Y703850D02*
X1316500Y703850D01*
X1384500Y703850D02*
X1416500Y703850D01*
X1484500Y703850D02*
X1517500Y703850D01*
X1584500Y703850D02*
X1617500Y703850D01*
X1684500Y703850D02*
X1717500Y703850D01*
X1784500Y703850D02*
X1817500Y703850D01*
X380500Y702850D02*
X417500Y702850D01*
X481500Y702850D02*
X517500Y702850D01*
X581500Y702850D02*
X617500Y702850D01*
X681500Y702850D02*
X718500Y702850D01*
X781500Y702850D02*
X818500Y702850D01*
X881500Y702850D02*
X918500Y702850D01*
X981500Y702850D02*
X1018500Y702850D01*
X1081500Y702850D02*
X1118500Y702850D01*
X1181500Y702850D02*
X1218500Y702850D01*
X1282500Y702850D02*
X1318500Y702850D01*
X1382500Y702850D02*
X1418500Y702850D01*
X1482500Y702850D02*
X1519500Y702850D01*
X1582500Y702850D02*
X1619500Y702850D01*
X1682500Y702850D02*
X1719500Y702850D01*
X1782500Y702850D02*
X1819500Y702850D01*
X379500Y701850D02*
X419500Y701850D01*
X479500Y701850D02*
X519500Y701850D01*
X579500Y701850D02*
X619500Y701850D01*
X679500Y701850D02*
X719500Y701850D01*
X779500Y701850D02*
X820500Y701850D01*
X879500Y701850D02*
X920500Y701850D01*
X979500Y701850D02*
X1020500Y701850D01*
X1080500Y701850D02*
X1120500Y701850D01*
X1180500Y701850D02*
X1220500Y701850D01*
X1280500Y701850D02*
X1320500Y701850D01*
X1380500Y701850D02*
X1420500Y701850D01*
X1480500Y701850D02*
X1520500Y701850D01*
X1580500Y701850D02*
X1620500Y701850D01*
X1680500Y701850D02*
X1721500Y701850D01*
X1780500Y701850D02*
X1821500Y701850D01*
X377500Y700850D02*
X421500Y700850D01*
X477500Y700850D02*
X521500Y700850D01*
X577500Y700850D02*
X621500Y700850D01*
X677500Y700850D02*
X721500Y700850D01*
X778500Y700850D02*
X821500Y700850D01*
X878500Y700850D02*
X921500Y700850D01*
X978500Y700850D02*
X1021500Y700850D01*
X1078500Y700850D02*
X1122500Y700850D01*
X1178500Y700850D02*
X1222500Y700850D01*
X1278500Y700850D02*
X1322500Y700850D01*
X1378500Y700850D02*
X1422500Y700850D01*
X1478500Y700850D02*
X1522500Y700850D01*
X1578500Y700850D02*
X1622500Y700850D01*
X1679500Y700850D02*
X1722500Y700850D01*
X1779500Y700850D02*
X1822500Y700850D01*
X375500Y699850D02*
X422500Y699850D01*
X476500Y699850D02*
X522500Y699850D01*
X576500Y699850D02*
X622500Y699850D01*
X676500Y699850D02*
X723500Y699850D01*
X776500Y699850D02*
X823500Y699850D01*
X876500Y699850D02*
X923500Y699850D01*
X976500Y699850D02*
X1023500Y699850D01*
X1076500Y699850D02*
X1123500Y699850D01*
X1176500Y699850D02*
X1223500Y699850D01*
X1277500Y699850D02*
X1323500Y699850D01*
X1377500Y699850D02*
X1423500Y699850D01*
X1477500Y699850D02*
X1524500Y699850D01*
X1577500Y699850D02*
X1624500Y699850D01*
X1677500Y699850D02*
X1724500Y699850D01*
X1777500Y699850D02*
X1824500Y699850D01*
X374500Y698850D02*
X424500Y698850D01*
X474500Y698850D02*
X524500Y698850D01*
X574500Y698850D02*
X624500Y698850D01*
X674500Y698850D02*
X724500Y698850D01*
X775500Y698850D02*
X824500Y698850D01*
X875500Y698850D02*
X924500Y698850D01*
X975500Y698850D02*
X1024500Y698850D01*
X1075500Y698850D02*
X1124500Y698850D01*
X1175500Y698850D02*
X1225500Y698850D01*
X1275500Y698850D02*
X1325500Y698850D01*
X1375500Y698850D02*
X1425500Y698850D01*
X1475500Y698850D02*
X1525500Y698850D01*
X1576500Y698850D02*
X1625500Y698850D01*
X1676500Y698850D02*
X1725500Y698850D01*
X1776500Y698850D02*
X1825500Y698850D01*
X373500Y697850D02*
X425500Y697850D01*
X473500Y697850D02*
X525500Y697850D01*
X573500Y697850D02*
X625500Y697850D01*
X673500Y697850D02*
X725500Y697850D01*
X773500Y697850D02*
X825500Y697850D01*
X873500Y697850D02*
X926500Y697850D01*
X974500Y697850D02*
X1026500Y697850D01*
X1074500Y697850D02*
X1126500Y697850D01*
X1174500Y697850D02*
X1226500Y697850D01*
X1274500Y697850D02*
X1326500Y697850D01*
X1374500Y697850D02*
X1426500Y697850D01*
X1474500Y697850D02*
X1526500Y697850D01*
X1574500Y697850D02*
X1626500Y697850D01*
X1674500Y697850D02*
X1726500Y697850D01*
X1775500Y697850D02*
X1827500Y697850D01*
X372500Y696850D02*
X426500Y696850D01*
X472500Y696850D02*
X526500Y696850D01*
X572500Y696850D02*
X626500Y696850D01*
X672500Y696850D02*
X726500Y696850D01*
X772500Y696850D02*
X827500Y696850D01*
X872500Y696850D02*
X927500Y696850D01*
X972500Y696850D02*
X1027500Y696850D01*
X1072500Y696850D02*
X1127500Y696850D01*
X1173500Y696850D02*
X1227500Y696850D01*
X1273500Y696850D02*
X1327500Y696850D01*
X1373500Y696850D02*
X1427500Y696850D01*
X1473500Y696850D02*
X1527500Y696850D01*
X1573500Y696850D02*
X1628500Y696850D01*
X1673500Y696850D02*
X1728500Y696850D01*
X1773500Y696850D02*
X1828500Y696850D01*
X370500Y695850D02*
X427500Y695850D01*
X471500Y695850D02*
X527500Y695850D01*
X571500Y695850D02*
X627500Y695850D01*
X671500Y695850D02*
X728500Y695850D01*
X771500Y695850D02*
X828500Y695850D01*
X871500Y695850D02*
X928500Y695850D01*
X971500Y695850D02*
X1028500Y695850D01*
X1071500Y695850D02*
X1128500Y695850D01*
X1171500Y695850D02*
X1228500Y695850D01*
X1272500Y695850D02*
X1328500Y695850D01*
X1372500Y695850D02*
X1428500Y695850D01*
X1472500Y695850D02*
X1529500Y695850D01*
X1572500Y695850D02*
X1629500Y695850D01*
X1672500Y695850D02*
X1729500Y695850D01*
X1772500Y695850D02*
X1829500Y695850D01*
X369500Y694850D02*
X428500Y694850D01*
X470500Y694850D02*
X528500Y694850D01*
X570500Y694850D02*
X628500Y694850D01*
X670500Y694850D02*
X729500Y694850D01*
X770500Y694850D02*
X829500Y694850D01*
X870500Y694850D02*
X929500Y694850D01*
X970500Y694850D02*
X1029500Y694850D01*
X1070500Y694850D02*
X1129500Y694850D01*
X1170500Y694850D02*
X1229500Y694850D01*
X1270500Y694850D02*
X1329500Y694850D01*
X1371500Y694850D02*
X1430500Y694850D01*
X1471500Y694850D02*
X1530500Y694850D01*
X1571500Y694850D02*
X1630500Y694850D01*
X1671500Y694850D02*
X1730500Y694850D01*
X1771500Y694850D02*
X1830500Y694850D01*
X369500Y693850D02*
X429500Y693850D01*
X469500Y693850D02*
X529500Y693850D01*
X569500Y693850D02*
X629500Y693850D01*
X669500Y693850D02*
X730500Y693850D01*
X769500Y693850D02*
X830500Y693850D01*
X869500Y693850D02*
X930500Y693850D01*
X969500Y693850D02*
X1030500Y693850D01*
X1069500Y693850D02*
X1130500Y693850D01*
X1170500Y693850D02*
X1230500Y693850D01*
X1270500Y693850D02*
X1330500Y693850D01*
X1370500Y693850D02*
X1430500Y693850D01*
X1470500Y693850D02*
X1531500Y693850D01*
X1570500Y693850D02*
X1631500Y693850D01*
X1670500Y693850D02*
X1731500Y693850D01*
X1770500Y693850D02*
X1831500Y693850D01*
X368500Y692850D02*
X430500Y692850D01*
X468500Y692850D02*
X530500Y692850D01*
X568500Y692850D02*
X630500Y692850D01*
X668500Y692850D02*
X730500Y692850D01*
X768500Y692850D02*
X831500Y692850D01*
X868500Y692850D02*
X931500Y692850D01*
X968500Y692850D02*
X1031500Y692850D01*
X1068500Y692850D02*
X1131500Y692850D01*
X1169500Y692850D02*
X1231500Y692850D01*
X1269500Y692850D02*
X1331500Y692850D01*
X1369500Y692850D02*
X1431500Y692850D01*
X1469500Y692850D02*
X1531500Y692850D01*
X1569500Y692850D02*
X1632500Y692850D01*
X1669500Y692850D02*
X1732500Y692850D01*
X1769500Y692850D02*
X1832500Y692850D01*
X367500Y691850D02*
X431500Y691850D01*
X467500Y691850D02*
X531500Y691850D01*
X567500Y691850D02*
X631500Y691850D01*
X667500Y691850D02*
X731500Y691850D01*
X767500Y691850D02*
X831500Y691850D01*
X867500Y691850D02*
X931500Y691850D01*
X968500Y691850D02*
X1032500Y691850D01*
X1068500Y691850D02*
X1132500Y691850D01*
X1168500Y691850D02*
X1232500Y691850D01*
X1268500Y691850D02*
X1332500Y691850D01*
X1368500Y691850D02*
X1432500Y691850D01*
X1468500Y691850D02*
X1532500Y691850D01*
X1568500Y691850D02*
X1632500Y691850D01*
X1668500Y691850D02*
X1732500Y691850D01*
X1769500Y691850D02*
X1833500Y691850D01*
X366500Y690850D02*
X432500Y690850D01*
X466500Y690850D02*
X532500Y690850D01*
X566500Y690850D02*
X632500Y690850D01*
X666500Y690850D02*
X732500Y690850D01*
X767500Y690850D02*
X832500Y690850D01*
X867500Y690850D02*
X932500Y690850D01*
X967500Y690850D02*
X1032500Y690850D01*
X1067500Y690850D02*
X1132500Y690850D01*
X1167500Y690850D02*
X1233500Y690850D01*
X1267500Y690850D02*
X1333500Y690850D01*
X1367500Y690850D02*
X1433500Y690850D01*
X1467500Y690850D02*
X1533500Y690850D01*
X1568500Y690850D02*
X1633500Y690850D01*
X1668500Y690850D02*
X1733500Y690850D01*
X1768500Y690850D02*
X1833500Y690850D01*
X365500Y689850D02*
X432500Y689850D01*
X465500Y689850D02*
X532500Y689850D01*
X566500Y689850D02*
X633500Y689850D01*
X666500Y689850D02*
X733500Y689850D01*
X766500Y689850D02*
X833500Y689850D01*
X866500Y689850D02*
X933500Y689850D01*
X966500Y689850D02*
X1033500Y689850D01*
X1066500Y689850D02*
X1133500Y689850D01*
X1166500Y689850D02*
X1233500Y689850D01*
X1266500Y689850D02*
X1333500Y689850D01*
X1367500Y689850D02*
X1434500Y689850D01*
X1467500Y689850D02*
X1534500Y689850D01*
X1567500Y689850D02*
X1634500Y689850D01*
X1667500Y689850D02*
X1734500Y689850D01*
X1767500Y689850D02*
X1834500Y689850D01*
X365500Y688850D02*
X433500Y688850D01*
X465500Y688850D02*
X533500Y688850D01*
X565500Y688850D02*
X633500Y688850D01*
X665500Y688850D02*
X733500Y688850D01*
X765500Y688850D02*
X834500Y688850D01*
X865500Y688850D02*
X934500Y688850D01*
X965500Y688850D02*
X1034500Y688850D01*
X1065500Y688850D02*
X1134500Y688850D01*
X1166500Y688850D02*
X1234500Y688850D01*
X1266500Y688850D02*
X1334500Y688850D01*
X1366500Y688850D02*
X1434500Y688850D01*
X1466500Y688850D02*
X1534500Y688850D01*
X1566500Y688850D02*
X1635500Y688850D01*
X1666500Y688850D02*
X1735500Y688850D01*
X1766500Y688850D02*
X1835500Y688850D01*
X364500Y687850D02*
X434500Y687850D01*
X464500Y687850D02*
X534500Y687850D01*
X564500Y687850D02*
X634500Y687850D01*
X664500Y687850D02*
X734500Y687850D01*
X764500Y687850D02*
X834500Y687850D01*
X865500Y687850D02*
X934500Y687850D01*
X965500Y687850D02*
X1034500Y687850D01*
X1065500Y687850D02*
X1135500Y687850D01*
X1165500Y687850D02*
X1235500Y687850D01*
X1265500Y687850D02*
X1335500Y687850D01*
X1365500Y687850D02*
X1435500Y687850D01*
X1465500Y687850D02*
X1535500Y687850D01*
X1565500Y687850D02*
X1635500Y687850D01*
X1665500Y687850D02*
X1735500Y687850D01*
X1766500Y687850D02*
X1835500Y687850D01*
X363500Y686850D02*
X434500Y686850D01*
X463500Y686850D02*
X534500Y686850D01*
X564500Y686850D02*
X635500Y686850D01*
X664500Y686850D02*
X735500Y686850D01*
X764500Y686850D02*
X835500Y686850D01*
X864500Y686850D02*
X935500Y686850D01*
X964500Y686850D02*
X1035500Y686850D01*
X1064500Y686850D02*
X1135500Y686850D01*
X1164500Y686850D02*
X1235500Y686850D01*
X1264500Y686850D02*
X1335500Y686850D01*
X1365500Y686850D02*
X1436500Y686850D01*
X1465500Y686850D02*
X1536500Y686850D01*
X1565500Y686850D02*
X1636500Y686850D01*
X1665500Y686850D02*
X1736500Y686850D01*
X1765500Y686850D02*
X1836500Y686850D01*
X363500Y685850D02*
X435500Y685850D01*
X463500Y685850D02*
X535500Y685850D01*
X563500Y685850D02*
X635500Y685850D01*
X663500Y685850D02*
X735500Y685850D01*
X763500Y685850D02*
X835500Y685850D01*
X863500Y685850D02*
X936500Y685850D01*
X963500Y685850D02*
X1036500Y685850D01*
X1064500Y685850D02*
X1136500Y685850D01*
X1164500Y685850D02*
X1236500Y685850D01*
X1264500Y685850D02*
X1336500Y685850D01*
X1364500Y685850D02*
X1436500Y685850D01*
X1464500Y685850D02*
X1536500Y685850D01*
X1564500Y685850D02*
X1636500Y685850D01*
X1664500Y685850D02*
X1737500Y685850D01*
X1764500Y685850D02*
X1837500Y685850D01*
X362500Y684850D02*
X436500Y684850D01*
X462500Y684850D02*
X536500Y684850D01*
X562500Y684850D02*
X636500Y684850D01*
X663500Y684850D02*
X736500Y684850D01*
X763500Y684850D02*
X836500Y684850D01*
X863500Y684850D02*
X936500Y684850D01*
X963500Y684850D02*
X1036500Y684850D01*
X1063500Y684850D02*
X1136500Y684850D01*
X1163500Y684850D02*
X1237500Y684850D01*
X1263500Y684850D02*
X1337500Y684850D01*
X1363500Y684850D02*
X1437500Y684850D01*
X1464500Y684850D02*
X1537500Y684850D01*
X1564500Y684850D02*
X1637500Y684850D01*
X1664500Y684850D02*
X1737500Y684850D01*
X1764500Y684850D02*
X1837500Y684850D01*
X362500Y683850D02*
X436500Y683850D01*
X462500Y683850D02*
X536500Y683850D01*
X562500Y683850D02*
X636500Y683850D01*
X662500Y683850D02*
X736500Y683850D01*
X762500Y683850D02*
X837500Y683850D01*
X862500Y683850D02*
X937500Y683850D01*
X962500Y683850D02*
X1037500Y683850D01*
X1063500Y683850D02*
X1137500Y683850D01*
X1163500Y683850D02*
X1237500Y683850D01*
X1263500Y683850D02*
X1337500Y683850D01*
X1363500Y683850D02*
X1437500Y683850D01*
X1463500Y683850D02*
X1537500Y683850D01*
X1563500Y683850D02*
X1637500Y683850D01*
X1663500Y683850D02*
X1738500Y683850D01*
X1763500Y683850D02*
X1838500Y683850D01*
X361500Y682850D02*
X437500Y682850D01*
X461500Y682850D02*
X537500Y682850D01*
X561500Y682850D02*
X637500Y682850D01*
X662500Y682850D02*
X737500Y682850D01*
X762500Y682850D02*
X837500Y682850D01*
X862500Y682850D02*
X937500Y682850D01*
X962500Y682850D02*
X1037500Y682850D01*
X1062500Y682850D02*
X1137500Y682850D01*
X1162500Y682850D02*
X1238500Y682850D01*
X1262500Y682850D02*
X1338500Y682850D01*
X1362500Y682850D02*
X1438500Y682850D01*
X1463500Y682850D02*
X1538500Y682850D01*
X1563500Y682850D02*
X1638500Y682850D01*
X1663500Y682850D02*
X1738500Y682850D01*
X1763500Y682850D02*
X1838500Y682850D01*
X361500Y681850D02*
X437500Y681850D01*
X461500Y681850D02*
X537500Y681850D01*
X561500Y681850D02*
X637500Y681850D01*
X661500Y681850D02*
X737500Y681850D01*
X761500Y681850D02*
X837500Y681850D01*
X861500Y681850D02*
X938500Y681850D01*
X961500Y681850D02*
X1038500Y681850D01*
X1062500Y681850D02*
X1138500Y681850D01*
X1162500Y681850D02*
X1238500Y681850D01*
X1262500Y681850D02*
X1338500Y681850D01*
X1362500Y681850D02*
X1438500Y681850D01*
X1462500Y681850D02*
X1538500Y681850D01*
X1562500Y681850D02*
X1638500Y681850D01*
X1662500Y681850D02*
X1739500Y681850D01*
X1762500Y681850D02*
X1839500Y681850D01*
X360500Y680850D02*
X437500Y680850D01*
X460500Y680850D02*
X537500Y680850D01*
X561500Y680850D02*
X638500Y680850D01*
X661500Y680850D02*
X738500Y680850D01*
X761500Y680850D02*
X838500Y680850D01*
X861500Y680850D02*
X938500Y680850D01*
X961500Y680850D02*
X1038500Y680850D01*
X1061500Y680850D02*
X1138500Y680850D01*
X1161500Y680850D02*
X1238500Y680850D01*
X1261500Y680850D02*
X1338500Y680850D01*
X1362500Y680850D02*
X1439500Y680850D01*
X1462500Y680850D02*
X1539500Y680850D01*
X1562500Y680850D02*
X1639500Y680850D01*
X1662500Y680850D02*
X1739500Y680850D01*
X1762500Y680850D02*
X1839500Y680850D01*
X360500Y679850D02*
X438500Y679850D01*
X460500Y679850D02*
X538500Y679850D01*
X560500Y679850D02*
X638500Y679850D01*
X660500Y679850D02*
X738500Y679850D01*
X760500Y679850D02*
X838500Y679850D01*
X861500Y679850D02*
X938500Y679850D01*
X961500Y679850D02*
X1038500Y679850D01*
X1061500Y679850D02*
X1139500Y679850D01*
X1161500Y679850D02*
X1239500Y679850D01*
X1261500Y679850D02*
X1339500Y679850D01*
X1361500Y679850D02*
X1439500Y679850D01*
X1461500Y679850D02*
X1539500Y679850D01*
X1561500Y679850D02*
X1639500Y679850D01*
X1661500Y679850D02*
X1739500Y679850D01*
X1762500Y679850D02*
X1839500Y679850D01*
X360500Y678850D02*
X438500Y678850D01*
X460500Y678850D02*
X538500Y678850D01*
X560500Y678850D02*
X638500Y678850D01*
X660500Y678850D02*
X738500Y678850D01*
X760500Y678850D02*
X839500Y678850D01*
X860500Y678850D02*
X939500Y678850D01*
X960500Y678850D02*
X1039500Y678850D01*
X1060500Y678850D02*
X1139500Y678850D01*
X1161500Y678850D02*
X1239500Y678850D01*
X1261500Y678850D02*
X1339500Y678850D01*
X1361500Y678850D02*
X1439500Y678850D01*
X1461500Y678850D02*
X1539500Y678850D01*
X1561500Y678850D02*
X1640500Y678850D01*
X1661500Y678850D02*
X1740500Y678850D01*
X1761500Y678850D02*
X1840500Y678850D01*
X359500Y677850D02*
X438500Y677850D01*
X459500Y677850D02*
X539500Y677850D01*
X559500Y677850D02*
X639500Y677850D01*
X660500Y677850D02*
X739500Y677850D01*
X760500Y677850D02*
X839500Y677850D01*
X860500Y677850D02*
X939500Y677850D01*
X960500Y677850D02*
X1039500Y677850D01*
X1060500Y677850D02*
X1139500Y677850D01*
X1160500Y677850D02*
X1239500Y677850D01*
X1260500Y677850D02*
X1340500Y677850D01*
X1361500Y677850D02*
X1440500Y677850D01*
X1461500Y677850D02*
X1540500Y677850D01*
X1561500Y677850D02*
X1640500Y677850D01*
X1661500Y677850D02*
X1740500Y677850D01*
X1761500Y677850D02*
X1840500Y677850D01*
X359500Y676850D02*
X439500Y676850D01*
X459500Y676850D02*
X539500Y676850D01*
X559500Y676850D02*
X639500Y676850D01*
X659500Y676850D02*
X739500Y676850D01*
X759500Y676850D02*
X839500Y676850D01*
X860500Y676850D02*
X939500Y676850D01*
X960500Y676850D02*
X1039500Y676850D01*
X1060500Y676850D02*
X1140500Y676850D01*
X1160500Y676850D02*
X1240500Y676850D01*
X1260500Y676850D02*
X1340500Y676850D01*
X1360500Y676850D02*
X1440500Y676850D01*
X1460500Y676850D02*
X1540500Y676850D01*
X1560500Y676850D02*
X1640500Y676850D01*
X1661500Y676850D02*
X1740500Y676850D01*
X1761500Y676850D02*
X1840500Y676850D01*
X359500Y675850D02*
X439500Y675850D01*
X459500Y675850D02*
X539500Y675850D01*
X559500Y675850D02*
X639500Y675850D01*
X659500Y675850D02*
X739500Y675850D01*
X759500Y675850D02*
X839500Y675850D01*
X859500Y675850D02*
X940500Y675850D01*
X959500Y675850D02*
X1040500Y675850D01*
X1060500Y675850D02*
X1140500Y675850D01*
X1160500Y675850D02*
X1240500Y675850D01*
X1260500Y675850D02*
X1340500Y675850D01*
X1360500Y675850D02*
X1440500Y675850D01*
X1460500Y675850D02*
X1540500Y675850D01*
X1560500Y675850D02*
X1640500Y675850D01*
X1660500Y675850D02*
X1740500Y675850D01*
X1760500Y675850D02*
X1841500Y675850D01*
X358500Y674850D02*
X439500Y674850D01*
X459500Y674850D02*
X539500Y674850D01*
X559500Y674850D02*
X639500Y674850D01*
X659500Y674850D02*
X740500Y674850D01*
X759500Y674850D02*
X840500Y674850D01*
X859500Y674850D02*
X940500Y674850D01*
X959500Y674850D02*
X1040500Y674850D01*
X1059500Y674850D02*
X1140500Y674850D01*
X1159500Y674850D02*
X1240500Y674850D01*
X1260500Y674850D02*
X1340500Y674850D01*
X1360500Y674850D02*
X1440500Y674850D01*
X1460500Y674850D02*
X1541500Y674850D01*
X1560500Y674850D02*
X1641500Y674850D01*
X1660500Y674850D02*
X1741500Y674850D01*
X1760500Y674850D02*
X1841500Y674850D01*
X358500Y673850D02*
X439500Y673850D01*
X458500Y673850D02*
X540500Y673850D01*
X558500Y673850D02*
X640500Y673850D01*
X659500Y673850D02*
X740500Y673850D01*
X759500Y673850D02*
X840500Y673850D01*
X859500Y673850D02*
X940500Y673850D01*
X959500Y673850D02*
X1040500Y673850D01*
X1059500Y673850D02*
X1140500Y673850D01*
X1159500Y673850D02*
X1240500Y673850D01*
X1259500Y673850D02*
X1341500Y673850D01*
X1360500Y673850D02*
X1441500Y673850D01*
X1460500Y673850D02*
X1541500Y673850D01*
X1560500Y673850D02*
X1641500Y673850D01*
X1660500Y673850D02*
X1741500Y673850D01*
X1760500Y673850D02*
X1841500Y673850D01*
X358500Y672850D02*
X440500Y672850D01*
X458500Y672850D02*
X540500Y672850D01*
X558500Y672850D02*
X640500Y672850D01*
X658500Y672850D02*
X740500Y672850D01*
X759500Y672850D02*
X840500Y672850D01*
X859500Y672850D02*
X940500Y672850D01*
X959500Y672850D02*
X1040500Y672850D01*
X1059500Y672850D02*
X1140500Y672850D01*
X1159500Y672850D02*
X1241500Y672850D01*
X1259500Y672850D02*
X1341500Y672850D01*
X1359500Y672850D02*
X1441500Y672850D01*
X1459500Y672850D02*
X1541500Y672850D01*
X1560500Y672850D02*
X1641500Y672850D01*
X1660500Y672850D02*
X1741500Y672850D01*
X1760500Y672850D02*
X1841500Y672850D01*
X358500Y671850D02*
X440500Y671850D01*
X458500Y671850D02*
X540500Y671850D01*
X558500Y671850D02*
X640500Y671850D01*
X658500Y671850D02*
X740500Y671850D01*
X758500Y671850D02*
X840500Y671850D01*
X859500Y671850D02*
X940500Y671850D01*
X959500Y671850D02*
X1041500Y671850D01*
X1059500Y671850D02*
X1141500Y671850D01*
X1159500Y671850D02*
X1241500Y671850D01*
X1259500Y671850D02*
X1341500Y671850D01*
X1359500Y671850D02*
X1441500Y671850D01*
X1459500Y671850D02*
X1541500Y671850D01*
X1559500Y671850D02*
X1641500Y671850D01*
X1659500Y671850D02*
X1741500Y671850D01*
X1760500Y671850D02*
X1842500Y671850D01*
X358500Y670850D02*
X440500Y670850D01*
X458500Y670850D02*
X540500Y670850D01*
X558500Y670850D02*
X640500Y670850D01*
X658500Y670850D02*
X740500Y670850D01*
X758500Y670850D02*
X840500Y670850D01*
X858500Y670850D02*
X941500Y670850D01*
X958500Y670850D02*
X1041500Y670850D01*
X1059500Y670850D02*
X1141500Y670850D01*
X1159500Y670850D02*
X1241500Y670850D01*
X1259500Y670850D02*
X1341500Y670850D01*
X1359500Y670850D02*
X1441500Y670850D01*
X1459500Y670850D02*
X1541500Y670850D01*
X1559500Y670850D02*
X1641500Y670850D01*
X1659500Y670850D02*
X1741500Y670850D01*
X1760500Y670850D02*
X1842500Y670850D01*
X358500Y669850D02*
X440500Y669850D01*
X458500Y669850D02*
X540500Y669850D01*
X558500Y669850D02*
X640500Y669850D01*
X658500Y669850D02*
X740500Y669850D01*
X758500Y669850D02*
X841500Y669850D01*
X858500Y669850D02*
X941500Y669850D01*
X958500Y669850D02*
X1041500Y669850D01*
X1058500Y669850D02*
X1141500Y669850D01*
X1159500Y669850D02*
X1241500Y669850D01*
X1259500Y669850D02*
X1341500Y669850D01*
X1359500Y669850D02*
X1441500Y669850D01*
X1459500Y669850D02*
X1541500Y669850D01*
X1559500Y669850D02*
X1642500Y669850D01*
X1659500Y669850D02*
X1742500Y669850D01*
X1759500Y669850D02*
X1842500Y669850D01*
X357500Y668850D02*
X440500Y668850D01*
X458500Y668850D02*
X540500Y668850D01*
X558500Y668850D02*
X640500Y668850D01*
X658500Y668850D02*
X741500Y668850D01*
X758500Y668850D02*
X841500Y668850D01*
X858500Y668850D02*
X941500Y668850D01*
X958500Y668850D02*
X1041500Y668850D01*
X1058500Y668850D02*
X1141500Y668850D01*
X1158500Y668850D02*
X1241500Y668850D01*
X1259500Y668850D02*
X1341500Y668850D01*
X1359500Y668850D02*
X1441500Y668850D01*
X1459500Y668850D02*
X1542500Y668850D01*
X1559500Y668850D02*
X1642500Y668850D01*
X1659500Y668850D02*
X1742500Y668850D01*
X1759500Y668850D02*
X1842500Y668850D01*
X357500Y667850D02*
X440500Y667850D01*
X458500Y667850D02*
X540500Y667850D01*
X558500Y667850D02*
X640500Y667850D01*
X658500Y667850D02*
X741500Y667850D01*
X758500Y667850D02*
X841500Y667850D01*
X858500Y667850D02*
X941500Y667850D01*
X958500Y667850D02*
X1041500Y667850D01*
X1058500Y667850D02*
X1141500Y667850D01*
X1158500Y667850D02*
X1241500Y667850D01*
X1259500Y667850D02*
X1341500Y667850D01*
X1359500Y667850D02*
X1442500Y667850D01*
X1459500Y667850D02*
X1542500Y667850D01*
X1559500Y667850D02*
X1642500Y667850D01*
X1659500Y667850D02*
X1742500Y667850D01*
X1759500Y667850D02*
X1842500Y667850D01*
X357500Y666850D02*
X440500Y666850D01*
X458500Y666850D02*
X540500Y666850D01*
X558500Y666850D02*
X641500Y666850D01*
X658500Y666850D02*
X741500Y666850D01*
X758500Y666850D02*
X841500Y666850D01*
X858500Y666850D02*
X941500Y666850D01*
X958500Y666850D02*
X1041500Y666850D01*
X1058500Y666850D02*
X1141500Y666850D01*
X1158500Y666850D02*
X1241500Y666850D01*
X1258500Y666850D02*
X1341500Y666850D01*
X1359500Y666850D02*
X1442500Y666850D01*
X1459500Y666850D02*
X1542500Y666850D01*
X1559500Y666850D02*
X1642500Y666850D01*
X1659500Y666850D02*
X1742500Y666850D01*
X1759500Y666850D02*
X1842500Y666850D01*
X357500Y665850D02*
X440500Y665850D01*
X457500Y665850D02*
X540500Y665850D01*
X558500Y665850D02*
X641500Y665850D01*
X658500Y665850D02*
X741500Y665850D01*
X758500Y665850D02*
X841500Y665850D01*
X858500Y665850D02*
X941500Y665850D01*
X958500Y665850D02*
X1041500Y665850D01*
X1058500Y665850D02*
X1141500Y665850D01*
X1158500Y665850D02*
X1241500Y665850D01*
X1258500Y665850D02*
X1341500Y665850D01*
X1359500Y665850D02*
X1442500Y665850D01*
X1459500Y665850D02*
X1542500Y665850D01*
X1559500Y665850D02*
X1642500Y665850D01*
X1659500Y665850D02*
X1742500Y665850D01*
X1759500Y665850D02*
X1842500Y665850D01*
X357500Y664850D02*
X440500Y664850D01*
X457500Y664850D02*
X540500Y664850D01*
X558500Y664850D02*
X641500Y664850D01*
X658500Y664850D02*
X741500Y664850D01*
X758500Y664850D02*
X841500Y664850D01*
X858500Y664850D02*
X941500Y664850D01*
X958500Y664850D02*
X1041500Y664850D01*
X1058500Y664850D02*
X1141500Y664850D01*
X1158500Y664850D02*
X1241500Y664850D01*
X1258500Y664850D02*
X1341500Y664850D01*
X1359500Y664850D02*
X1442500Y664850D01*
X1459500Y664850D02*
X1542500Y664850D01*
X1559500Y664850D02*
X1642500Y664850D01*
X1659500Y664850D02*
X1742500Y664850D01*
X1759500Y664850D02*
X1842500Y664850D01*
X357500Y663850D02*
X440500Y663850D01*
X458500Y663850D02*
X540500Y663850D01*
X558500Y663850D02*
X641500Y663850D01*
X658500Y663850D02*
X741500Y663850D01*
X758500Y663850D02*
X841500Y663850D01*
X858500Y663850D02*
X941500Y663850D01*
X958500Y663850D02*
X1041500Y663850D01*
X1058500Y663850D02*
X1141500Y663850D01*
X1158500Y663850D02*
X1241500Y663850D01*
X1258500Y663850D02*
X1341500Y663850D01*
X1359500Y663850D02*
X1442500Y663850D01*
X1459500Y663850D02*
X1542500Y663850D01*
X1559500Y663850D02*
X1642500Y663850D01*
X1659500Y663850D02*
X1742500Y663850D01*
X1759500Y663850D02*
X1842500Y663850D01*
X357500Y662850D02*
X440500Y662850D01*
X458500Y662850D02*
X540500Y662850D01*
X558500Y662850D02*
X640500Y662850D01*
X658500Y662850D02*
X741500Y662850D01*
X758500Y662850D02*
X841500Y662850D01*
X858500Y662850D02*
X941500Y662850D01*
X958500Y662850D02*
X1041500Y662850D01*
X1058500Y662850D02*
X1141500Y662850D01*
X1158500Y662850D02*
X1241500Y662850D01*
X1259500Y662850D02*
X1341500Y662850D01*
X1359500Y662850D02*
X1442500Y662850D01*
X1459500Y662850D02*
X1542500Y662850D01*
X1559500Y662850D02*
X1642500Y662850D01*
X1659500Y662850D02*
X1742500Y662850D01*
X1759500Y662850D02*
X1842500Y662850D01*
X357500Y661850D02*
X440500Y661850D01*
X458500Y661850D02*
X540500Y661850D01*
X558500Y661850D02*
X640500Y661850D01*
X658500Y661850D02*
X741500Y661850D01*
X758500Y661850D02*
X841500Y661850D01*
X858500Y661850D02*
X941500Y661850D01*
X958500Y661850D02*
X1041500Y661850D01*
X1058500Y661850D02*
X1141500Y661850D01*
X1158500Y661850D02*
X1241500Y661850D01*
X1259500Y661850D02*
X1341500Y661850D01*
X1359500Y661850D02*
X1441500Y661850D01*
X1459500Y661850D02*
X1542500Y661850D01*
X1559500Y661850D02*
X1642500Y661850D01*
X1659500Y661850D02*
X1742500Y661850D01*
X1759500Y661850D02*
X1842500Y661850D01*
X358500Y660850D02*
X440500Y660850D01*
X458500Y660850D02*
X540500Y660850D01*
X558500Y660850D02*
X640500Y660850D01*
X658500Y660850D02*
X740500Y660850D01*
X758500Y660850D02*
X841500Y660850D01*
X858500Y660850D02*
X941500Y660850D01*
X958500Y660850D02*
X1041500Y660850D01*
X1058500Y660850D02*
X1141500Y660850D01*
X1159500Y660850D02*
X1241500Y660850D01*
X1259500Y660850D02*
X1341500Y660850D01*
X1359500Y660850D02*
X1441500Y660850D01*
X1459500Y660850D02*
X1541500Y660850D01*
X1559500Y660850D02*
X1642500Y660850D01*
X1659500Y660850D02*
X1742500Y660850D01*
X1759500Y660850D02*
X1842500Y660850D01*
X358500Y659850D02*
X440500Y659850D01*
X458500Y659850D02*
X540500Y659850D01*
X558500Y659850D02*
X640500Y659850D01*
X658500Y659850D02*
X740500Y659850D01*
X758500Y659850D02*
X840500Y659850D01*
X858500Y659850D02*
X941500Y659850D01*
X958500Y659850D02*
X1041500Y659850D01*
X1059500Y659850D02*
X1141500Y659850D01*
X1159500Y659850D02*
X1241500Y659850D01*
X1259500Y659850D02*
X1341500Y659850D01*
X1359500Y659850D02*
X1441500Y659850D01*
X1459500Y659850D02*
X1541500Y659850D01*
X1559500Y659850D02*
X1641500Y659850D01*
X1659500Y659850D02*
X1741500Y659850D01*
X1760500Y659850D02*
X1842500Y659850D01*
X358500Y658850D02*
X440500Y658850D01*
X458500Y658850D02*
X540500Y658850D01*
X558500Y658850D02*
X640500Y658850D01*
X658500Y658850D02*
X740500Y658850D01*
X758500Y658850D02*
X840500Y658850D01*
X859500Y658850D02*
X940500Y658850D01*
X959500Y658850D02*
X1041500Y658850D01*
X1059500Y658850D02*
X1141500Y658850D01*
X1159500Y658850D02*
X1241500Y658850D01*
X1259500Y658850D02*
X1341500Y658850D01*
X1359500Y658850D02*
X1441500Y658850D01*
X1459500Y658850D02*
X1541500Y658850D01*
X1559500Y658850D02*
X1641500Y658850D01*
X1659500Y658850D02*
X1741500Y658850D01*
X1760500Y658850D02*
X1842500Y658850D01*
X358500Y657850D02*
X440500Y657850D01*
X458500Y657850D02*
X540500Y657850D01*
X558500Y657850D02*
X640500Y657850D01*
X658500Y657850D02*
X740500Y657850D01*
X759500Y657850D02*
X840500Y657850D01*
X859500Y657850D02*
X940500Y657850D01*
X959500Y657850D02*
X1040500Y657850D01*
X1059500Y657850D02*
X1140500Y657850D01*
X1159500Y657850D02*
X1241500Y657850D01*
X1259500Y657850D02*
X1341500Y657850D01*
X1359500Y657850D02*
X1441500Y657850D01*
X1459500Y657850D02*
X1541500Y657850D01*
X1560500Y657850D02*
X1641500Y657850D01*
X1660500Y657850D02*
X1741500Y657850D01*
X1760500Y657850D02*
X1841500Y657850D01*
X358500Y656850D02*
X439500Y656850D01*
X458500Y656850D02*
X540500Y656850D01*
X558500Y656850D02*
X640500Y656850D01*
X659500Y656850D02*
X740500Y656850D01*
X759500Y656850D02*
X840500Y656850D01*
X859500Y656850D02*
X940500Y656850D01*
X959500Y656850D02*
X1040500Y656850D01*
X1059500Y656850D02*
X1140500Y656850D01*
X1159500Y656850D02*
X1240500Y656850D01*
X1259500Y656850D02*
X1341500Y656850D01*
X1360500Y656850D02*
X1441500Y656850D01*
X1460500Y656850D02*
X1541500Y656850D01*
X1560500Y656850D02*
X1641500Y656850D01*
X1660500Y656850D02*
X1741500Y656850D01*
X1760500Y656850D02*
X1841500Y656850D01*
X358500Y655850D02*
X439500Y655850D01*
X459500Y655850D02*
X539500Y655850D01*
X559500Y655850D02*
X639500Y655850D01*
X659500Y655850D02*
X740500Y655850D01*
X759500Y655850D02*
X840500Y655850D01*
X859500Y655850D02*
X940500Y655850D01*
X959500Y655850D02*
X1040500Y655850D01*
X1059500Y655850D02*
X1140500Y655850D01*
X1159500Y655850D02*
X1240500Y655850D01*
X1260500Y655850D02*
X1340500Y655850D01*
X1360500Y655850D02*
X1440500Y655850D01*
X1460500Y655850D02*
X1541500Y655850D01*
X1560500Y655850D02*
X1641500Y655850D01*
X1660500Y655850D02*
X1741500Y655850D01*
X1760500Y655850D02*
X1841500Y655850D01*
X359500Y654850D02*
X439500Y654850D01*
X459500Y654850D02*
X539500Y654850D01*
X559500Y654850D02*
X639500Y654850D01*
X659500Y654850D02*
X739500Y654850D01*
X759500Y654850D02*
X839500Y654850D01*
X859500Y654850D02*
X940500Y654850D01*
X959500Y654850D02*
X1040500Y654850D01*
X1060500Y654850D02*
X1140500Y654850D01*
X1160500Y654850D02*
X1240500Y654850D01*
X1260500Y654850D02*
X1340500Y654850D01*
X1360500Y654850D02*
X1440500Y654850D01*
X1460500Y654850D02*
X1540500Y654850D01*
X1560500Y654850D02*
X1640500Y654850D01*
X1660500Y654850D02*
X1740500Y654850D01*
X1760500Y654850D02*
X1841500Y654850D01*
X359500Y653850D02*
X439500Y653850D01*
X459500Y653850D02*
X539500Y653850D01*
X559500Y653850D02*
X639500Y653850D01*
X659500Y653850D02*
X739500Y653850D01*
X759500Y653850D02*
X839500Y653850D01*
X860500Y653850D02*
X939500Y653850D01*
X960500Y653850D02*
X1039500Y653850D01*
X1060500Y653850D02*
X1140500Y653850D01*
X1160500Y653850D02*
X1240500Y653850D01*
X1260500Y653850D02*
X1340500Y653850D01*
X1360500Y653850D02*
X1440500Y653850D01*
X1460500Y653850D02*
X1540500Y653850D01*
X1560500Y653850D02*
X1640500Y653850D01*
X1661500Y653850D02*
X1740500Y653850D01*
X1761500Y653850D02*
X1840500Y653850D01*
X359500Y652850D02*
X438500Y652850D01*
X459500Y652850D02*
X539500Y652850D01*
X559500Y652850D02*
X639500Y652850D01*
X660500Y652850D02*
X739500Y652850D01*
X760500Y652850D02*
X839500Y652850D01*
X860500Y652850D02*
X939500Y652850D01*
X960500Y652850D02*
X1039500Y652850D01*
X1060500Y652850D02*
X1139500Y652850D01*
X1160500Y652850D02*
X1239500Y652850D01*
X1260500Y652850D02*
X1340500Y652850D01*
X1361500Y652850D02*
X1440500Y652850D01*
X1461500Y652850D02*
X1540500Y652850D01*
X1561500Y652850D02*
X1640500Y652850D01*
X1661500Y652850D02*
X1740500Y652850D01*
X1761500Y652850D02*
X1840500Y652850D01*
X360500Y651850D02*
X438500Y651850D01*
X460500Y651850D02*
X538500Y651850D01*
X560500Y651850D02*
X638500Y651850D01*
X660500Y651850D02*
X738500Y651850D01*
X760500Y651850D02*
X839500Y651850D01*
X860500Y651850D02*
X939500Y651850D01*
X960500Y651850D02*
X1039500Y651850D01*
X1060500Y651850D02*
X1139500Y651850D01*
X1161500Y651850D02*
X1239500Y651850D01*
X1261500Y651850D02*
X1339500Y651850D01*
X1361500Y651850D02*
X1439500Y651850D01*
X1461500Y651850D02*
X1539500Y651850D01*
X1561500Y651850D02*
X1640500Y651850D01*
X1661500Y651850D02*
X1740500Y651850D01*
X1761500Y651850D02*
X1840500Y651850D01*
X360500Y650850D02*
X438500Y650850D01*
X460500Y650850D02*
X538500Y650850D01*
X560500Y650850D02*
X638500Y650850D01*
X660500Y650850D02*
X738500Y650850D01*
X760500Y650850D02*
X838500Y650850D01*
X861500Y650850D02*
X938500Y650850D01*
X961500Y650850D02*
X1038500Y650850D01*
X1061500Y650850D02*
X1139500Y650850D01*
X1161500Y650850D02*
X1239500Y650850D01*
X1261500Y650850D02*
X1339500Y650850D01*
X1361500Y650850D02*
X1439500Y650850D01*
X1461500Y650850D02*
X1539500Y650850D01*
X1561500Y650850D02*
X1639500Y650850D01*
X1661500Y650850D02*
X1739500Y650850D01*
X1762500Y650850D02*
X1840500Y650850D01*
X360500Y649850D02*
X437500Y649850D01*
X460500Y649850D02*
X538500Y649850D01*
X561500Y649850D02*
X638500Y649850D01*
X661500Y649850D02*
X738500Y649850D01*
X761500Y649850D02*
X838500Y649850D01*
X861500Y649850D02*
X938500Y649850D01*
X961500Y649850D02*
X1038500Y649850D01*
X1061500Y649850D02*
X1138500Y649850D01*
X1161500Y649850D02*
X1238500Y649850D01*
X1261500Y649850D02*
X1338500Y649850D01*
X1362500Y649850D02*
X1439500Y649850D01*
X1462500Y649850D02*
X1539500Y649850D01*
X1562500Y649850D02*
X1639500Y649850D01*
X1662500Y649850D02*
X1739500Y649850D01*
X1762500Y649850D02*
X1839500Y649850D01*
X361500Y648850D02*
X437500Y648850D01*
X461500Y648850D02*
X537500Y648850D01*
X561500Y648850D02*
X637500Y648850D01*
X661500Y648850D02*
X737500Y648850D01*
X761500Y648850D02*
X838500Y648850D01*
X861500Y648850D02*
X938500Y648850D01*
X961500Y648850D02*
X1038500Y648850D01*
X1062500Y648850D02*
X1138500Y648850D01*
X1162500Y648850D02*
X1238500Y648850D01*
X1262500Y648850D02*
X1338500Y648850D01*
X1362500Y648850D02*
X1438500Y648850D01*
X1462500Y648850D02*
X1538500Y648850D01*
X1562500Y648850D02*
X1638500Y648850D01*
X1662500Y648850D02*
X1739500Y648850D01*
X1762500Y648850D02*
X1839500Y648850D01*
X361500Y647850D02*
X437500Y647850D01*
X461500Y647850D02*
X537500Y647850D01*
X561500Y647850D02*
X637500Y647850D01*
X662500Y647850D02*
X737500Y647850D01*
X762500Y647850D02*
X837500Y647850D01*
X862500Y647850D02*
X937500Y647850D01*
X962500Y647850D02*
X1037500Y647850D01*
X1062500Y647850D02*
X1137500Y647850D01*
X1162500Y647850D02*
X1238500Y647850D01*
X1262500Y647850D02*
X1338500Y647850D01*
X1362500Y647850D02*
X1438500Y647850D01*
X1463500Y647850D02*
X1538500Y647850D01*
X1563500Y647850D02*
X1638500Y647850D01*
X1663500Y647850D02*
X1738500Y647850D01*
X1763500Y647850D02*
X1838500Y647850D01*
X362500Y646850D02*
X436500Y646850D01*
X462500Y646850D02*
X536500Y646850D01*
X562500Y646850D02*
X636500Y646850D01*
X662500Y646850D02*
X736500Y646850D01*
X762500Y646850D02*
X837500Y646850D01*
X862500Y646850D02*
X937500Y646850D01*
X962500Y646850D02*
X1037500Y646850D01*
X1062500Y646850D02*
X1137500Y646850D01*
X1163500Y646850D02*
X1237500Y646850D01*
X1263500Y646850D02*
X1337500Y646850D01*
X1363500Y646850D02*
X1437500Y646850D01*
X1463500Y646850D02*
X1537500Y646850D01*
X1563500Y646850D02*
X1638500Y646850D01*
X1663500Y646850D02*
X1738500Y646850D01*
X1763500Y646850D02*
X1838500Y646850D01*
X362500Y645850D02*
X436500Y645850D01*
X462500Y645850D02*
X536500Y645850D01*
X562500Y645850D02*
X636500Y645850D01*
X662500Y645850D02*
X736500Y645850D01*
X763500Y645850D02*
X836500Y645850D01*
X863500Y645850D02*
X936500Y645850D01*
X963500Y645850D02*
X1036500Y645850D01*
X1063500Y645850D02*
X1136500Y645850D01*
X1163500Y645850D02*
X1237500Y645850D01*
X1263500Y645850D02*
X1337500Y645850D01*
X1363500Y645850D02*
X1437500Y645850D01*
X1463500Y645850D02*
X1537500Y645850D01*
X1564500Y645850D02*
X1637500Y645850D01*
X1664500Y645850D02*
X1737500Y645850D01*
X1764500Y645850D02*
X1837500Y645850D01*
X363500Y644850D02*
X435500Y644850D01*
X463500Y644850D02*
X535500Y644850D01*
X563500Y644850D02*
X635500Y644850D01*
X663500Y644850D02*
X735500Y644850D01*
X763500Y644850D02*
X835500Y644850D01*
X863500Y644850D02*
X936500Y644850D01*
X963500Y644850D02*
X1036500Y644850D01*
X1064500Y644850D02*
X1136500Y644850D01*
X1164500Y644850D02*
X1236500Y644850D01*
X1264500Y644850D02*
X1336500Y644850D01*
X1364500Y644850D02*
X1436500Y644850D01*
X1464500Y644850D02*
X1536500Y644850D01*
X1564500Y644850D02*
X1636500Y644850D01*
X1664500Y644850D02*
X1737500Y644850D01*
X1764500Y644850D02*
X1837500Y644850D01*
X363500Y643850D02*
X434500Y643850D01*
X463500Y643850D02*
X534500Y643850D01*
X564500Y643850D02*
X635500Y643850D01*
X664500Y643850D02*
X735500Y643850D01*
X764500Y643850D02*
X835500Y643850D01*
X864500Y643850D02*
X935500Y643850D01*
X964500Y643850D02*
X1035500Y643850D01*
X1064500Y643850D02*
X1135500Y643850D01*
X1164500Y643850D02*
X1235500Y643850D01*
X1264500Y643850D02*
X1335500Y643850D01*
X1365500Y643850D02*
X1436500Y643850D01*
X1465500Y643850D02*
X1536500Y643850D01*
X1565500Y643850D02*
X1636500Y643850D01*
X1665500Y643850D02*
X1736500Y643850D01*
X1765500Y643850D02*
X1836500Y643850D01*
X364500Y642850D02*
X434500Y642850D01*
X464500Y642850D02*
X534500Y642850D01*
X564500Y642850D02*
X634500Y642850D01*
X664500Y642850D02*
X734500Y642850D01*
X764500Y642850D02*
X834500Y642850D01*
X865500Y642850D02*
X934500Y642850D01*
X965500Y642850D02*
X1034500Y642850D01*
X1065500Y642850D02*
X1135500Y642850D01*
X1165500Y642850D02*
X1235500Y642850D01*
X1265500Y642850D02*
X1335500Y642850D01*
X1365500Y642850D02*
X1435500Y642850D01*
X1465500Y642850D02*
X1535500Y642850D01*
X1565500Y642850D02*
X1635500Y642850D01*
X1665500Y642850D02*
X1735500Y642850D01*
X1766500Y642850D02*
X1836500Y642850D01*
X365500Y641850D02*
X433500Y641850D01*
X465500Y641850D02*
X533500Y641850D01*
X565500Y641850D02*
X633500Y641850D01*
X665500Y641850D02*
X733500Y641850D01*
X765500Y641850D02*
X834500Y641850D01*
X865500Y641850D02*
X934500Y641850D01*
X965500Y641850D02*
X1034500Y641850D01*
X1065500Y641850D02*
X1134500Y641850D01*
X1166500Y641850D02*
X1234500Y641850D01*
X1266500Y641850D02*
X1334500Y641850D01*
X1366500Y641850D02*
X1434500Y641850D01*
X1466500Y641850D02*
X1534500Y641850D01*
X1566500Y641850D02*
X1635500Y641850D01*
X1666500Y641850D02*
X1735500Y641850D01*
X1766500Y641850D02*
X1835500Y641850D01*
X365500Y640850D02*
X432500Y640850D01*
X465500Y640850D02*
X533500Y640850D01*
X566500Y640850D02*
X633500Y640850D01*
X666500Y640850D02*
X733500Y640850D01*
X766500Y640850D02*
X833500Y640850D01*
X866500Y640850D02*
X933500Y640850D01*
X966500Y640850D02*
X1033500Y640850D01*
X1066500Y640850D02*
X1133500Y640850D01*
X1166500Y640850D02*
X1233500Y640850D01*
X1266500Y640850D02*
X1333500Y640850D01*
X1367500Y640850D02*
X1434500Y640850D01*
X1467500Y640850D02*
X1534500Y640850D01*
X1567500Y640850D02*
X1634500Y640850D01*
X1667500Y640850D02*
X1734500Y640850D01*
X1767500Y640850D02*
X1834500Y640850D01*
X366500Y639850D02*
X432500Y639850D01*
X466500Y639850D02*
X532500Y639850D01*
X566500Y639850D02*
X632500Y639850D01*
X666500Y639850D02*
X732500Y639850D01*
X767500Y639850D02*
X832500Y639850D01*
X867500Y639850D02*
X932500Y639850D01*
X967500Y639850D02*
X1032500Y639850D01*
X1067500Y639850D02*
X1133500Y639850D01*
X1167500Y639850D02*
X1233500Y639850D01*
X1267500Y639850D02*
X1333500Y639850D01*
X1367500Y639850D02*
X1433500Y639850D01*
X1467500Y639850D02*
X1533500Y639850D01*
X1567500Y639850D02*
X1633500Y639850D01*
X1668500Y639850D02*
X1733500Y639850D01*
X1768500Y639850D02*
X1833500Y639850D01*
X367500Y638850D02*
X431500Y638850D01*
X467500Y638850D02*
X531500Y638850D01*
X567500Y638850D02*
X631500Y638850D01*
X667500Y638850D02*
X731500Y638850D01*
X767500Y638850D02*
X831500Y638850D01*
X867500Y638850D02*
X932500Y638850D01*
X967500Y638850D02*
X1032500Y638850D01*
X1068500Y638850D02*
X1132500Y638850D01*
X1168500Y638850D02*
X1232500Y638850D01*
X1268500Y638850D02*
X1332500Y638850D01*
X1368500Y638850D02*
X1432500Y638850D01*
X1468500Y638850D02*
X1532500Y638850D01*
X1568500Y638850D02*
X1632500Y638850D01*
X1668500Y638850D02*
X1732500Y638850D01*
X1769500Y638850D02*
X1833500Y638850D01*
X368500Y637850D02*
X430500Y637850D01*
X468500Y637850D02*
X530500Y637850D01*
X568500Y637850D02*
X630500Y637850D01*
X668500Y637850D02*
X730500Y637850D01*
X768500Y637850D02*
X831500Y637850D01*
X868500Y637850D02*
X931500Y637850D01*
X968500Y637850D02*
X1031500Y637850D01*
X1068500Y637850D02*
X1131500Y637850D01*
X1169500Y637850D02*
X1231500Y637850D01*
X1269500Y637850D02*
X1331500Y637850D01*
X1369500Y637850D02*
X1431500Y637850D01*
X1469500Y637850D02*
X1531500Y637850D01*
X1569500Y637850D02*
X1632500Y637850D01*
X1669500Y637850D02*
X1732500Y637850D01*
X1769500Y637850D02*
X1832500Y637850D01*
X368500Y636850D02*
X429500Y636850D01*
X469500Y636850D02*
X529500Y636850D01*
X569500Y636850D02*
X629500Y636850D01*
X669500Y636850D02*
X730500Y636850D01*
X769500Y636850D02*
X830500Y636850D01*
X869500Y636850D02*
X930500Y636850D01*
X969500Y636850D02*
X1030500Y636850D01*
X1069500Y636850D02*
X1130500Y636850D01*
X1169500Y636850D02*
X1230500Y636850D01*
X1270500Y636850D02*
X1330500Y636850D01*
X1370500Y636850D02*
X1430500Y636850D01*
X1470500Y636850D02*
X1531500Y636850D01*
X1570500Y636850D02*
X1631500Y636850D01*
X1670500Y636850D02*
X1731500Y636850D01*
X1770500Y636850D02*
X1831500Y636850D01*
X369500Y635850D02*
X428500Y635850D01*
X470500Y635850D02*
X528500Y635850D01*
X570500Y635850D02*
X629500Y635850D01*
X670500Y635850D02*
X729500Y635850D01*
X770500Y635850D02*
X829500Y635850D01*
X870500Y635850D02*
X929500Y635850D01*
X970500Y635850D02*
X1029500Y635850D01*
X1070500Y635850D02*
X1129500Y635850D01*
X1170500Y635850D02*
X1229500Y635850D01*
X1270500Y635850D02*
X1329500Y635850D01*
X1371500Y635850D02*
X1430500Y635850D01*
X1471500Y635850D02*
X1530500Y635850D01*
X1571500Y635850D02*
X1630500Y635850D01*
X1671500Y635850D02*
X1730500Y635850D01*
X1771500Y635850D02*
X1830500Y635850D01*
X370500Y634850D02*
X427500Y634850D01*
X471500Y634850D02*
X527500Y634850D01*
X571500Y634850D02*
X627500Y634850D01*
X671500Y634850D02*
X728500Y634850D01*
X771500Y634850D02*
X828500Y634850D01*
X871500Y634850D02*
X928500Y634850D01*
X971500Y634850D02*
X1028500Y634850D01*
X1071500Y634850D02*
X1128500Y634850D01*
X1171500Y634850D02*
X1228500Y634850D01*
X1272500Y634850D02*
X1328500Y634850D01*
X1372500Y634850D02*
X1429500Y634850D01*
X1472500Y634850D02*
X1529500Y634850D01*
X1572500Y634850D02*
X1629500Y634850D01*
X1672500Y634850D02*
X1729500Y634850D01*
X1772500Y634850D02*
X1829500Y634850D01*
X372500Y633850D02*
X426500Y633850D01*
X472500Y633850D02*
X526500Y633850D01*
X572500Y633850D02*
X626500Y633850D01*
X672500Y633850D02*
X726500Y633850D01*
X772500Y633850D02*
X827500Y633850D01*
X872500Y633850D02*
X927500Y633850D01*
X972500Y633850D02*
X1027500Y633850D01*
X1072500Y633850D02*
X1127500Y633850D01*
X1173500Y633850D02*
X1227500Y633850D01*
X1273500Y633850D02*
X1327500Y633850D01*
X1373500Y633850D02*
X1427500Y633850D01*
X1473500Y633850D02*
X1527500Y633850D01*
X1573500Y633850D02*
X1628500Y633850D01*
X1673500Y633850D02*
X1728500Y633850D01*
X1773500Y633850D02*
X1828500Y633850D01*
X373500Y632850D02*
X425500Y632850D01*
X473500Y632850D02*
X525500Y632850D01*
X573500Y632850D02*
X625500Y632850D01*
X673500Y632850D02*
X725500Y632850D01*
X773500Y632850D02*
X825500Y632850D01*
X873500Y632850D02*
X926500Y632850D01*
X973500Y632850D02*
X1026500Y632850D01*
X1074500Y632850D02*
X1126500Y632850D01*
X1174500Y632850D02*
X1226500Y632850D01*
X1274500Y632850D02*
X1326500Y632850D01*
X1374500Y632850D02*
X1426500Y632850D01*
X1474500Y632850D02*
X1526500Y632850D01*
X1574500Y632850D02*
X1626500Y632850D01*
X1674500Y632850D02*
X1727500Y632850D01*
X1774500Y632850D02*
X1827500Y632850D01*
X374500Y631850D02*
X424500Y631850D01*
X474500Y631850D02*
X524500Y631850D01*
X574500Y631850D02*
X624500Y631850D01*
X674500Y631850D02*
X724500Y631850D01*
X775500Y631850D02*
X824500Y631850D01*
X875500Y631850D02*
X924500Y631850D01*
X975500Y631850D02*
X1024500Y631850D01*
X1075500Y631850D02*
X1124500Y631850D01*
X1175500Y631850D02*
X1225500Y631850D01*
X1275500Y631850D02*
X1325500Y631850D01*
X1375500Y631850D02*
X1425500Y631850D01*
X1475500Y631850D02*
X1525500Y631850D01*
X1576500Y631850D02*
X1625500Y631850D01*
X1676500Y631850D02*
X1725500Y631850D01*
X1776500Y631850D02*
X1825500Y631850D01*
X375500Y630850D02*
X422500Y630850D01*
X476500Y630850D02*
X522500Y630850D01*
X576500Y630850D02*
X622500Y630850D01*
X676500Y630850D02*
X723500Y630850D01*
X776500Y630850D02*
X823500Y630850D01*
X876500Y630850D02*
X923500Y630850D01*
X976500Y630850D02*
X1023500Y630850D01*
X1076500Y630850D02*
X1123500Y630850D01*
X1176500Y630850D02*
X1223500Y630850D01*
X1277500Y630850D02*
X1323500Y630850D01*
X1377500Y630850D02*
X1424500Y630850D01*
X1477500Y630850D02*
X1524500Y630850D01*
X1577500Y630850D02*
X1624500Y630850D01*
X1677500Y630850D02*
X1724500Y630850D01*
X1777500Y630850D02*
X1824500Y630850D01*
X377500Y629850D02*
X421500Y629850D01*
X477500Y629850D02*
X521500Y629850D01*
X577500Y629850D02*
X621500Y629850D01*
X677500Y629850D02*
X721500Y629850D01*
X777500Y629850D02*
X821500Y629850D01*
X878500Y629850D02*
X921500Y629850D01*
X978500Y629850D02*
X1021500Y629850D01*
X1078500Y629850D02*
X1122500Y629850D01*
X1178500Y629850D02*
X1222500Y629850D01*
X1278500Y629850D02*
X1322500Y629850D01*
X1378500Y629850D02*
X1422500Y629850D01*
X1478500Y629850D02*
X1522500Y629850D01*
X1578500Y629850D02*
X1622500Y629850D01*
X1679500Y629850D02*
X1722500Y629850D01*
X1779500Y629850D02*
X1822500Y629850D01*
X379500Y628850D02*
X419500Y628850D01*
X479500Y628850D02*
X519500Y628850D01*
X579500Y628850D02*
X619500Y628850D01*
X679500Y628850D02*
X719500Y628850D01*
X779500Y628850D02*
X820500Y628850D01*
X879500Y628850D02*
X920500Y628850D01*
X979500Y628850D02*
X1020500Y628850D01*
X1079500Y628850D02*
X1120500Y628850D01*
X1180500Y628850D02*
X1220500Y628850D01*
X1280500Y628850D02*
X1320500Y628850D01*
X1380500Y628850D02*
X1420500Y628850D01*
X1480500Y628850D02*
X1520500Y628850D01*
X1580500Y628850D02*
X1621500Y628850D01*
X1680500Y628850D02*
X1721500Y628850D01*
X1780500Y628850D02*
X1821500Y628850D01*
X380500Y627850D02*
X417500Y627850D01*
X481500Y627850D02*
X517500Y627850D01*
X581500Y627850D02*
X617500Y627850D01*
X681500Y627850D02*
X718500Y627850D01*
X781500Y627850D02*
X818500Y627850D01*
X881500Y627850D02*
X918500Y627850D01*
X981500Y627850D02*
X1018500Y627850D01*
X1081500Y627850D02*
X1118500Y627850D01*
X1181500Y627850D02*
X1218500Y627850D01*
X1281500Y627850D02*
X1318500Y627850D01*
X1382500Y627850D02*
X1419500Y627850D01*
X1482500Y627850D02*
X1519500Y627850D01*
X1582500Y627850D02*
X1619500Y627850D01*
X1682500Y627850D02*
X1719500Y627850D01*
X1782500Y627850D02*
X1819500Y627850D01*
X382500Y626850D02*
X415500Y626850D01*
X483500Y626850D02*
X515500Y626850D01*
X583500Y626850D02*
X615500Y626850D01*
X683500Y626850D02*
X716500Y626850D01*
X783500Y626850D02*
X816500Y626850D01*
X883500Y626850D02*
X916500Y626850D01*
X983500Y626850D02*
X1016500Y626850D01*
X1083500Y626850D02*
X1116500Y626850D01*
X1183500Y626850D02*
X1216500Y626850D01*
X1284500Y626850D02*
X1316500Y626850D01*
X1384500Y626850D02*
X1416500Y626850D01*
X1484500Y626850D02*
X1517500Y626850D01*
X1584500Y626850D02*
X1617500Y626850D01*
X1684500Y626850D02*
X1717500Y626850D01*
X1784500Y626850D02*
X1817500Y626850D01*
X385500Y625850D02*
X413500Y625850D01*
X485500Y625850D02*
X513500Y625850D01*
X585500Y625850D02*
X613500Y625850D01*
X685500Y625850D02*
X713500Y625850D01*
X786500Y625850D02*
X813500Y625850D01*
X886500Y625850D02*
X913500Y625850D01*
X986500Y625850D02*
X1013500Y625850D01*
X1086500Y625850D02*
X1113500Y625850D01*
X1186500Y625850D02*
X1214500Y625850D01*
X1286500Y625850D02*
X1314500Y625850D01*
X1386500Y625850D02*
X1414500Y625850D01*
X1486500Y625850D02*
X1514500Y625850D01*
X1587500Y625850D02*
X1614500Y625850D01*
X1687500Y625850D02*
X1714500Y625850D01*
X1787500Y625850D02*
X1814500Y625850D01*
X388500Y624850D02*
X409500Y624850D01*
X488500Y624850D02*
X509500Y624850D01*
X589500Y624850D02*
X610500Y624850D01*
X689500Y624850D02*
X710500Y624850D01*
X789500Y624850D02*
X810500Y624850D01*
X889500Y624850D02*
X910500Y624850D01*
X989500Y624850D02*
X1010500Y624850D01*
X1089500Y624850D02*
X1110500Y624850D01*
X1189500Y624850D02*
X1210500Y624850D01*
X1289500Y624850D02*
X1310500Y624850D01*
X1390500Y624850D02*
X1411500Y624850D01*
X1490500Y624850D02*
X1511500Y624850D01*
X1590500Y624850D02*
X1611500Y624850D01*
X1690500Y624850D02*
X1711500Y624850D01*
X1790500Y624850D02*
X1811500Y624850D01*
X393500Y623850D02*
X404500Y623850D01*
X493500Y623850D02*
X505500Y623850D01*
X593500Y623850D02*
X605500Y623850D01*
X694500Y623850D02*
X705500Y623850D01*
X794500Y623850D02*
X805500Y623850D01*
X894500Y623850D02*
X905500Y623850D01*
X994500Y623850D02*
X1005500Y623850D01*
X1094500Y623850D02*
X1105500Y623850D01*
X1194500Y623850D02*
X1205500Y623850D01*
X1294500Y623850D02*
X1306500Y623850D01*
X1394500Y623850D02*
X1406500Y623850D01*
X1495500Y623850D02*
X1506500Y623850D01*
X1595500Y623850D02*
X1606500Y623850D01*
X1695500Y623850D02*
X1706500Y623850D01*
X1795500Y623850D02*
X1806500Y623850D01*
D02*
G04 End of Mask1*
M02*