; NON-PLATED HOLES START AT T1
; THROUGH (PLATED) HOLES START AT T100
M48
INCH
T1C0.086614
T2C0.125984
T100C0.040000
T101C0.015748
T102C0.038000
T103C0.035050
T104C0.025000
T105C0.035000
T106C0.057917
%
T1
X029793Y017351
T2
X001002Y007101
X019402Y016301
X000999Y001353
X030000Y001353
X019402Y007101
X001002Y016301
X000999Y020353
X030000Y020353
T100
X021644Y016793
X023424Y019353
X021644Y019353
X023424Y016793
T101
X005680Y009733
X005520Y007973
X016240Y007973
X018960Y005893
X009360Y010213
X019600Y011013
X002480Y001093
X010320Y005253
X010160Y010053
X013680Y005573
X022480Y014213
X012240Y007973
T102
X010000Y019353
X025000Y019353
X016000Y002353
X025000Y006353
X021000Y006353
X005000Y004353
X019000Y019353
X013000Y002353
X026000Y019353
X015000Y002353
X026000Y006353
X011000Y002353
X024000Y004353
X023000Y006353
X004000Y019353
X026000Y005353
X007000Y002353
X008000Y002353
X022000Y007353
X028868Y015352
X023000Y005353
X025000Y009353
X021000Y009353
X012000Y019353
X024000Y008353
X021000Y005353
X025000Y005353
X023000Y009353
X026000Y009353
X022000Y002353
X009000Y003353
X006000Y002353
X022000Y008353
X011000Y004353
X024000Y002353
X015000Y004353
X026000Y013353
X009000Y019353
X028868Y013357
X024000Y007353
X005000Y002353
X027000Y009353
X014000Y019353
X016000Y004353
X018000Y002353
X017000Y002353
X022000Y004353
X026000Y003353
X023000Y003353
X004000Y003353
X028000Y019353
X010000Y003353
X027000Y019353
X021000Y003353
X025000Y003353
X008000Y004353
X006000Y019353
X004000Y004353
X023000Y004353
X026000Y004353
X024000Y006353
X022000Y003353
X009000Y002353
X028868Y014352
X005000Y019353
X008000Y003353
X025000Y004353
X014000Y002353
X021000Y004353
X010000Y004353
X011000Y003353
X017000Y019353
X024000Y009353
X018000Y019353
X023000Y008353
X026000Y008353
X027000Y007353
X027000Y002353
X024000Y005353
X021000Y008353
X025000Y008353
X023004Y013359
X016000Y019353
X025000Y002353
X021000Y002353
X014000Y004353
X010000Y002353
X023000Y007353
X026000Y007353
X013000Y019353
X022000Y005353
X009000Y004353
X011000Y019353
X022000Y009353
X015000Y019353
X026000Y002353
X020000Y019353
X023000Y002353
X004000Y002353
X025000Y007353
X021000Y007353
X028868Y012357
X005000Y003353
X008000Y019353
X007000Y019353
X012000Y002353
X024000Y003353
X022000Y006353
T103
X015010Y016665
X015010Y006650
X004995Y016665
X007999Y006650
X007999Y016665
X004995Y006650
X018014Y006650
X011004Y016665
X018014Y016665
X011004Y006650
X017012Y006650
X017012Y016665
X016011Y016665
X005996Y006650
X006998Y016665
X003994Y016665
X005996Y016665
X016011Y006650
X003994Y006650
X006998Y006650
X013006Y006650
X010002Y016665
X012005Y006650
X009001Y006650
X012005Y016665
X013006Y016665
X010002Y006650
X009001Y016665
X014008Y016665
X014008Y006650
T104
X017212Y004353
X018786Y004353
X019574Y004353
X018000Y004353
T105
X015000Y013353
X011000Y013353
X007000Y009353
X003000Y013353
X011000Y011353
X003000Y009353
X007000Y011353
X011000Y009353
X015000Y009353
X007000Y013353
T106
X029730Y005015
X029731Y007015
T00
M30
